<?xml version="1.0" encoding="UTF-8"?>
<svg id="Lag_1" data-name="Lag 1" xmlns="http://www.w3.org/2000/svg" viewBox="0 0 672.01 1760.56">
  <defs>
    <style>
      .cls-1 {
        fill: #3ab5e9;
      }
    </style>
  </defs>
  <path class="cls-1" d="M425.91,65.76l-29.86,39.57-6.5-35.82,36.36-3.74ZM292.45,15.19l74.83,41.8,11.32-45.82-86.15,4.02ZM569.54,340.92l-27-40.71-25.36,33.64,52.36,7.07ZM620.48,292.18l-69.3,9.88,30.09,42.12,39.21-52ZM639.04,360.43l-35.93-24.79-6.07,40.2,41.99-15.41ZM547.06,377.21l41.37-24.55-34.29-6.03-7.09,30.58ZM333.26,57.78l20.55,31.28,19.83-27.57-40.37-3.71ZM380.95,9.77l3.46,55.57,41.29-16.86-44.75-38.71ZM578.31,249.35l-4.3,40.38,41.29-16.86-36.98-23.52ZM648.62,210.27l-37.56,22.78,40.86,17.68-3.3-40.46ZM538.49,140.95l21.28,51.45,33.6-29.33-54.88-22.12ZM575.73,232.2l-48.87,18.23,33.76,27.12,15.11-45.35ZM531.22,176.16l1.32,62.69,50.86-20.77-52.18-41.92ZM603.31,170.24l-32.47,28.35,43.71,10.96-11.23-39.3ZM622.95,153.1l-4.07,57.44,29.37-4.49-25.29-52.95ZM615.16,253.11l-21.45-40.02-11.45,29.5,32.9,10.52ZM609.51,57.63l3.46,55.57,41.29-16.86-44.75-38.71ZM581.31,104.21l21.81,58.66,40.88-35.68-62.69-22.98ZM554.22,92.44l5.73,35.78,20.8-8.49-26.53-27.29ZM517.49,99.96l-4,41.12,38.86-14.04-34.86-27.09ZM469.88,110.32l-5.73,37.27,41.21-17.02-35.49-20.25ZM575.74,40.83l-42.68,10.93,36.26,37.3,6.42-48.23ZM541.38,73.01l-31.65,15.88,36.78,16.21-5.14-32.08ZM576.64,71.09l17.41,25.84,15.92-21.09-33.33-4.74ZM449.73,0l3.46,55.57,41.29-16.86L449.73,0ZM468.42,91.95l-45.55,17.79,30.78,24.62,14.77-42.41ZM430.89,48.57l-1.9,52.49,48.06-19.94-46.15-32.55ZM499.64,39.25l-30.3,29.74,39.19,9.66-8.89-39.4ZM513.82,20.5l-1,48.94,19.73-2.94-18.72-46ZM508.7,116.8l-21.45-40.02-11.45,29.5,32.9,10.52ZM665.09,331.87l-35.3-38.13-23.55,35.52,58.84,2.61ZM590.61,63.81l21.93-17.54-31.74-11.79,9.82,29.33ZM353.56,98.94l28.34,11.47.77-34.72-29.11,23.25ZM505.17,144.34l-4.3,40.38,41.29-16.86-36.98-23.52ZM614.11,275.28l29.33,16.38-5.76-32.59-23.57,16.21ZM614.17,47.94l29.33,16.38-5.76-32.59-23.57,16.21ZM246.51,72.09l30.78,39.57,6.7-35.82-37.47-3.74ZM152.45,340.19l-26.14-33.64-27.83,40.71,53.97-7.07ZM86.39,350.52l31.01-42.12-71.42-9.88,40.41,52ZM69.9,383.87l-6.64-41.98-38.98,25.84,45.62,16.14ZM114.35,352.97l-35.34,6.03,42.64,24.55-7.3-30.58ZM295.58,65.06l33.31,8.28-3.56-37.6-29.75,29.33ZM246.73,54.81l42.55,16.86,3.57-55.57-46.12,38.71ZM51.33,279.21l42.55,16.86-4.44-40.38-38.12,23.52ZM25.96,264.72l32.4-32.18-44.43-6.59,12.03,38.78ZM73.92,169.4l34.63,29.33,21.93-51.45-56.56,22.12ZM107.67,283.89l34.79-27.12-50.36-18.23,15.57,45.35ZM84.19,224.42l52.42,20.77,1.36-62.69-53.78,41.92ZM52.1,215.88l45.05-10.96-33.47-28.35-11.58,39.3ZM17.37,212.38l30.27,4.49-4.2-57.44-26.07,52.95ZM85.37,248.93l-11.8-29.5-22.11,40.02,33.91-10.52ZM11.17,102.68l42.55,16.86,3.57-55.57L11.17,102.68ZM21.73,133.52l42.13,35.68,22.48-58.66-64.62,22.98ZM86.93,126.07l21.44,8.49,5.9-35.78-27.34,27.29ZM116.21,133.38l40.05,14.04-4.12-41.12-35.92,27.09ZM164.62,136.9l42.48,17.02-5.9-37.27-36.57,20.25ZM98.7,95.39l37.37-37.3-43.99-10.93,6.61,48.23ZM122.21,111.43l37.91-16.21-32.62-15.88-5.29,32.08ZM56.81,82.17l16.41,21.09,17.95-25.84-34.35,4.74ZM175.85,45.04l42.55,16.86,3.57-55.57-46.12,38.71ZM217.93,140.7l31.72-24.62-46.95-17.79,15.23,42.41ZM193.81,87.45l49.53,19.94-1.96-52.49-47.57,32.55ZM161.37,84.99l40.39-9.66-31.23-29.74-9.16,39.4ZM136.61,72.83l20.33,2.94-1.03-48.94-19.3,46ZM195.09,112.62l-11.8-29.5-22.11,40.02,33.91-10.52ZM60.65,335.6l-24.27-35.52L0,338.21l60.65-2.61ZM86.88,40.82l-32.72,11.79,22.6,17.54,10.12-29.33ZM288.49,90.64l30.72,16.18,4.17-31.1-34.9,14.92ZM126.7,174.2l42.55,16.86-4.44-40.38-38.12,23.52ZM23.91,269.22l-5.94,32.59,30.23-16.38-24.29-16.21ZM28.2,38.07l-5.94,32.59,30.23-16.38-24.29-16.21ZM355.27,354.96l34.63,29.33,21.93-51.45-56.56,22.12ZM333.44,401.43l45.05-10.96-33.47-28.35-11.58,39.3ZM298.71,397.94l30.27,4.49-4.2-57.44-26.07,52.95ZM292.51,288.23l42.55,16.86,3.57-55.57-46.12,38.71ZM303.08,319.08l42.13,35.68,22.48-58.66-64.62,22.98ZM368.28,311.62l21.44,8.49,5.9-35.78-27.34,27.29ZM397.56,318.93l40.05,14.04-4.12-41.12-35.92,27.09ZM445.97,322.45l42.48,17.02-5.9-37.27-36.57,20.25ZM380.05,280.95l37.37-37.3-43.99-10.93,6.61,48.23ZM403.56,296.99l37.91-16.21-32.62-15.88-5.29,32.08ZM338.16,267.73l16.41,21.09,17.95-25.84-34.35,4.74ZM457.2,230.6l42.55,16.86,3.57-55.57-46.12,38.71ZM499.28,326.25l31.72-24.62-46.95-17.79,15.23,42.41ZM475.16,273.01l49.53,19.94-1.96-52.49-47.57,32.55ZM442.71,270.54l40.39-9.66-31.23-29.74-9.16,39.4ZM418.1,259.22l18.7,2.36-.5-42.44-18.2,40.08ZM476.44,298.17l-11.8-29.5-22.11,40.02,33.91-10.52ZM368.23,226.38l-32.72,11.79,22.6,17.54,10.12-29.33ZM408.05,359.76l42.55,16.86-4.44-40.38-38.12,23.52ZM476,348.23l-5.94,32.59,30.23-16.38-24.29-16.21ZM251.99,276.92l30.27,4.49-4.2-57.44-26.07,52.95ZM245.79,167.21l42.55,16.86,3.57-55.57-46.12,38.71ZM321.55,190.6l21.44,8.49,5.9-35.78-27.34,27.29ZM350.83,197.91l40.05,14.04-4.12-41.12-35.92,27.09ZM399.24,201.43l42.48,17.02-5.9-37.27-36.57,20.25ZM333.33,159.92l37.37-37.3-43.99-10.93,6.61,48.23ZM356.83,175.97l37.91-16.21-32.62-15.88-5.29,32.08ZM291.43,146.7l16.41,21.09,17.95-25.84-34.35,4.74ZM452.56,205.23l31.72-24.62-46.95-17.79,15.23,42.41ZM395.99,149.52l40.39-9.66-31.23-29.74-9.16,39.4ZM371.23,137.37l20.33,2.94-1.03-48.94-19.3,46ZM429.72,177.15l-11.8-29.5-22.11,40.02,33.91-10.52ZM324.57,109.19l-32.72,11.79,22.6,17.54,10.12-29.33ZM254.4,115.62l-5.94,32.59,30.23-16.38-24.29-16.21ZM152.29,297.51l34.63,29.33,21.93-51.45-56.56,22.12ZM114.87,292.93l42.01-1.31,1.86-35.03-43.87,36.34ZM165.3,254.17l21.44,8.49,5.9-35.78-27.34,27.29ZM194.58,261.48l40.05,14.04-4.12-41.12-35.92,27.09ZM180.14,216.61l37.37-37.3-43.99-10.93,6.61,48.23ZM200.58,239.54l37.91-16.21-32.62-15.88-5.29,32.08ZM147.16,198.65l-8.31,25.4,31.46.43-23.14-25.83ZM272.18,215.56l49.53,19.94-1.96-52.49-47.57,32.55ZM239.74,213.1l40.39-9.66-31.23-29.74-9.16,39.4ZM214.98,200.94l20.33,2.94-1.03-48.94-19.3,46ZM260.46,243.46l-10.54-25.09-11.4,30.7,21.95-5.61ZM205.07,302.31l42.55,16.86-4.44-40.38-38.12,23.52ZM273.02,290.78l-5.94,32.59,30.23-16.38-24.29-16.21ZM116.29,495.13l34.63,29.33,21.93-51.45-56.56,22.12ZM94.47,541.61l45.05-10.96-33.47-28.35-11.58,39.3ZM59.74,538.11l30.27,4.49-4.2-57.44-26.07,52.95ZM53.54,428.4l42.55,16.86,3.57-55.57-46.12,38.71ZM64.1,459.25l42.13,35.68,22.48-58.66-64.62,22.98ZM129.3,451.79l21.44,8.49,5.9-35.78-27.34,27.29ZM158.58,459.1l40.05,14.04-4.12-41.12-35.92,27.09ZM206.99,462.62l42.48,17.02-5.9-37.27-36.57,20.25ZM141.07,421.12l37.37-37.3-43.99-10.93,6.61,48.23ZM164.58,437.16l37.91-16.21-32.62-15.88-5.29,32.08ZM99.18,407.9l16.41,21.09,17.95-25.84-34.35,4.74ZM218.22,370.77l42.55,16.86,3.57-55.57-46.12,38.71ZM260.3,466.42l31.72-24.62-46.95-17.79,15.23,42.41ZM236.18,413.18l49.53,19.94-1.96-52.49-47.57,32.55ZM203.74,410.71l40.39-9.66-31.23-29.74-9.16,39.4ZM178.98,398.56l20.33,2.94-1.03-48.94-19.3,46ZM237.46,438.34l-11.8-29.5-22.11,40.02,33.91-10.52ZM230.36,322.12l-32.72,11.79,22.6,17.54,10.12-29.33ZM169.07,499.93l42.55,16.86-4.44-40.38-38.12,23.52ZM70.57,363.79l-5.94,32.59,30.23-16.38-24.29-16.21ZM237.02,488.4l-5.94,32.59,30.23-16.38-24.29-16.21ZM344.54,538.02l34.63,29.33,21.93-51.45-56.56,22.12ZM322.72,584.5l45.05-10.96-33.47-28.35-11.58,39.3ZM287.99,581l30.27,4.49-4.2-57.44-26.07,52.95ZM281.79,471.29l42.55,16.86,3.57-55.57-46.12,38.71ZM292.36,502.14l42.13,35.68,22.48-58.66-64.62,22.98ZM357.55,494.68l21.44,8.49,5.9-35.78-27.34,27.29ZM386.83,502l40.05,14.04-4.12-41.12-35.92,27.09ZM435.24,505.52l42.48,17.02-5.9-37.27-36.57,20.25ZM369.33,464.01l37.37-37.3-43.99-10.93,6.61,48.23ZM392.83,480.05l37.91-16.21-32.62-15.88-5.29,32.08ZM327.43,450.79l16.41,21.09,17.95-25.84-34.35,4.74ZM446.47,413.66l42.55,16.86,3.57-55.57-46.12,38.71ZM488.56,509.31l31.72-24.62-46.95-17.79,15.23,42.41ZM464.44,456.07l49.53,19.94-1.96-52.49-47.57,32.55ZM431.99,453.61l40.39-9.66-31.23-29.74-9.16,39.4ZM407.23,441.45l20.33,2.94-1.03-48.94-19.3,46ZM465.72,481.24l-11.8-29.5-22.11,40.02,33.91-10.52ZM357.51,409.44l-32.72,11.79,22.6,17.54,10.12-29.33ZM397.33,542.82l42.55,16.86-4.44-40.38-38.12,23.52ZM298.82,406.69l-5.94,32.59,30.23-16.38-24.29-16.21ZM465.28,531.29l-5.94,32.59,30.23-16.38-24.29-16.21ZM600.74,617.05l17.03-42.49-55.55-3.79,38.52,46.28ZM631.62,606.6l35.85-41.99-58.57-22.72,22.72,64.71ZM624.43,541.38l8.58-21.41-35.76-6.04,27.18,27.45ZM631.86,512.13l14.19-39.99-41.14,3.96,26.94,36.03ZM635.57,463.73l17.19-42.41-37.29,5.75,20.1,36.66ZM593.8,529.48l-37.15-37.52-11.1,43.94,48.26-6.42ZM609.94,506.04l-16.05-37.98-16.01,32.55,32.06,5.42ZM580.42,571.32l21.16-16.32-25.76-18.05,4.61,34.37ZM543.76,452.14l17.03-42.49-55.55-3.79,38.52,46.28ZM639.58,410.44l-24.5-31.82-17.98,46.88,42.47-15.06ZM586.24,434.34l20.14-49.45-52.5,1.75,32.36,47.7ZM583.65,466.78l-9.5-40.43-29.86,31.11,39.36,9.32ZM571.4,491.49l3.02-20.32-48.94.84,45.92,19.48ZM611.41,433.16l-29.55,11.68,39.93,22.27-10.39-33.95ZM539.19,541.08l11.66,32.76,17.63-22.53-29.28-10.23ZM536.2,599.76l32.57,6.07-16.26-30.29-16.31,24.22ZM122.41,680.49l34.63,29.33,21.93-51.45-56.56,22.12ZM100.59,726.97l45.05-10.96-33.47-28.35-11.58,39.3ZM65.86,723.47l30.27,4.49-4.2-57.44-26.07,52.95ZM59.66,613.76l42.55,16.86,3.57-55.57-46.12,38.71ZM70.23,644.61l42.13,35.68,22.48-58.66-64.62,22.98ZM135.43,637.15l21.44,8.49,5.9-35.78-27.34,27.29ZM164.7,644.46l40.05,14.04-4.12-41.12-35.92,27.09ZM213.12,647.98l42.48,17.02-5.9-37.27-36.57,20.25ZM147.2,606.48l37.37-37.3-43.99-10.93,6.61,48.23ZM170.71,622.52l37.91-16.21-32.62-15.88-5.29,32.08ZM105.31,593.26l16.41,21.09,17.95-25.84-34.35,4.74ZM224.34,556.13l42.55,16.86,3.57-55.57-46.12,38.71ZM266.43,651.78l31.72-24.62-46.95-17.79,15.23,42.41ZM242.31,598.54l49.53,19.94-1.96-52.49-47.57,32.55ZM209.86,596.07l40.39-9.66-31.23-29.74-9.16,39.4ZM185.11,583.92l20.33,2.94-1.03-48.94-19.3,46ZM243.59,623.7l-11.8-29.5-22.11,40.02,33.91-10.52ZM135.38,551.91l-32.72,11.79,22.6,17.54,10.12-29.33ZM175.2,685.29l42.55,16.86-4.44-40.38-38.12,23.52ZM76.69,549.15l-5.94,32.59,30.23-16.38-24.29-16.21ZM243.15,673.76l-5.94,32.59,30.23-16.38-24.29-16.21ZM225.05,839.81l34.63,29.33,21.93-51.45-56.56,22.12ZM203.23,886.29l45.05-10.96-33.47-28.35-11.58,39.3ZM168.5,882.79l30.27,4.49-4.2-57.44-26.07,52.95ZM162.3,773.08l42.55,16.86,3.57-55.57-46.12,38.71ZM172.87,803.93l42.13,35.68,22.48-58.66-64.62,22.98ZM238.07,796.47l21.44,8.49,5.9-35.78-27.34,27.29ZM267.34,803.78l40.05,14.04-4.12-41.12-35.92,27.09ZM315.76,807.3l42.48,17.02-5.9-37.27-36.57,20.25ZM249.84,765.8l37.37-37.3-43.99-10.93,6.61,48.23ZM273.34,781.84l37.91-16.21-32.62-15.88-5.29,32.08ZM207.94,752.58l16.41,21.09,17.95-25.84-34.35,4.74ZM326.98,715.45l42.55,16.86,3.57-55.57-46.12,38.71ZM369.07,811.1l31.72-24.62-46.95-17.79,15.23,42.41ZM344.95,757.86l49.53,19.94-1.96-52.49-47.57,32.55ZM312.5,755.39l40.39-9.66-31.23-29.74-9.16,39.4ZM287.75,743.24l20.33,2.94-1.03-48.94-19.3,46ZM346.23,783.02l-11.8-29.5-22.11,40.02,33.91-10.52ZM238.02,711.23l-32.72,11.79,22.6,17.54,10.12-29.33ZM277.84,844.61l42.55,16.86-4.44-40.38-38.12,23.52ZM179.33,708.47l-5.94,32.59,30.23-16.38-24.29-16.21ZM345.79,833.08l-5.94,32.59,30.23-16.38-24.29-16.21ZM466.42,778.95l34.63,29.33,21.93-51.45-56.56,22.12ZM444.6,825.43l45.05-10.96-33.47-28.35-11.58,39.3ZM409.87,821.93l30.27,4.49-4.2-57.44-26.07,52.95ZM403.67,712.22l42.55,16.86,3.57-55.57-46.12,38.71ZM414.24,743.07l42.13,35.68,22.48-58.66-64.62,22.98ZM479.44,735.62l21.44,8.49,5.9-35.78-27.34,27.29ZM508.71,742.93l40.05,14.04-4.12-41.12-35.92,27.09ZM557.13,746.45l42.48,17.02-5.9-37.27-36.57,20.25ZM491.21,704.94l37.37-37.3-43.99-10.93,6.61,48.23ZM514.71,720.98l37.91-16.21-32.62-15.88-5.29,32.08ZM449.31,691.72l16.41,21.09,17.95-25.84-34.35,4.74ZM568.35,654.59l42.55,16.86,3.57-55.57-46.12,38.71ZM610.44,750.24l31.72-24.62-46.95-17.79,15.23,42.41ZM586.32,697l49.53,19.94-1.96-52.49-47.57,32.55ZM553.87,694.54l40.39-9.66-31.23-29.74-9.16,39.4ZM529.12,682.38l20.33,2.94-1.03-48.94-19.3,46ZM587.6,722.17l-11.8-29.5-22.11,40.02,33.91-10.52ZM479.39,650.37l-32.72,11.79,22.6,17.54,10.12-29.33ZM519.21,783.75l42.55,16.86-4.44-40.38-38.12,23.52ZM420.7,647.62l-5.94,32.59,30.23-16.38-24.29-16.21ZM587.16,772.22l-5.94,32.59,30.23-16.38-24.29-16.21ZM440.29,970.79l34.63,29.33,21.93-51.45-56.56,22.12ZM418.47,1017.26l45.05-10.96-33.47-28.35-11.58,39.3ZM383.74,1013.77l30.27,4.49-4.2-57.44-26.07,52.95ZM377.54,904.06l42.55,16.86,3.57-55.57-46.12,38.71ZM388.1,934.9l42.13,35.68,22.48-58.66-64.62,22.98ZM453.3,927.45l21.44,8.49,5.9-35.78-27.34,27.29ZM482.58,934.76l40.05,14.04-4.12-41.12-35.92,27.09ZM530.99,938.28l42.48,17.02-5.9-37.27-36.57,20.25ZM465.07,896.78l37.37-37.3-43.99-10.93,6.61,48.23ZM488.58,912.82l37.91-16.21-32.62-15.88-5.29,32.08ZM423.18,883.56l16.41,21.09,17.95-25.84-34.35,4.74ZM542.22,846.43l42.55,16.86,3.57-55.57-46.12,38.71ZM584.3,942.08l31.72-24.62-46.95-17.79,15.23,42.41ZM560.18,888.84l49.53,19.94-1.96-52.49-47.57,32.55ZM527.74,886.37l40.39-9.66-31.23-29.74-9.16,39.4ZM502.98,874.22l20.33,2.94-1.03-48.94-19.3,46ZM561.46,914l-11.8-29.5-22.11,40.02,33.91-10.52ZM453.25,842.21l-32.72,11.79,22.6,17.54,10.12-29.33ZM493.07,975.59l42.55,16.86-4.44-40.38-38.12,23.52ZM394.57,839.45l-5.94,32.59,30.23-16.38-24.29-16.21ZM561.02,964.06l-5.94,32.59,30.23-16.38-24.29-16.21ZM203.18,1030.77l34.63,29.33,21.93-51.45-56.56,22.12ZM181.36,1077.25l45.05-10.96-33.47-28.35-11.58,39.3ZM146.63,1073.75l30.27,4.49-4.2-57.44-26.07,52.95ZM140.43,964.04l42.55,16.86,3.57-55.57-46.12,38.71ZM151,994.89l42.13,35.68,22.48-58.66-64.62,22.98ZM216.2,987.43l21.44,8.49,5.9-35.78-27.34,27.29ZM245.47,994.74l40.05,14.04-4.12-41.12-35.92,27.09ZM293.89,998.26l42.48,17.02-5.9-37.27-36.57,20.25ZM227.97,956.76l37.37-37.3-43.99-10.93,6.61,48.23ZM251.47,972.8l37.91-16.21-32.62-15.88-5.29,32.08ZM186.07,943.54l16.41,21.09,17.95-25.84-34.35,4.74ZM305.11,906.41l42.55,16.86,3.57-55.57-46.12,38.71ZM347.2,1002.06l31.72-24.62-46.95-17.79,15.23,42.41ZM323.08,948.82l49.53,19.94-1.96-52.49-47.57,32.55ZM290.63,946.35l40.39-9.66-31.23-29.74-9.16,39.4ZM265.88,934.2l20.33,2.94-1.03-48.94-19.3,46ZM324.36,973.98l-11.8-29.5-22.11,40.02,33.91-10.52ZM216.15,902.19l-32.72,11.79,22.6,17.54,10.12-29.33ZM255.97,1035.57l42.55,16.86-4.44-40.38-38.12,23.52ZM157.46,899.43l-5.94,32.59,30.23-16.38-24.29-16.21ZM323.92,1024.04l-5.94,32.59,30.23-16.38-24.29-16.21ZM401.22,1148.49l34.63,29.33,21.93-51.45-56.56,22.12ZM379.4,1194.97l45.05-10.96-33.47-28.35-11.58,39.3ZM344.67,1191.47l30.27,4.49-4.2-57.44-26.07,52.95ZM338.47,1081.76l42.55,16.86,3.57-55.57-46.12,38.71ZM349.04,1112.61l42.13,35.68,22.48-58.66-64.62,22.98ZM414.24,1105.15l21.44,8.49,5.9-35.78-27.34,27.29ZM443.51,1112.46l40.05,14.04-4.12-41.12-35.92,27.09ZM491.93,1115.98l42.48,17.02-5.9-37.27-36.57,20.25ZM426.01,1074.48l37.37-37.3-43.99-10.93,6.61,48.23ZM449.51,1090.52l37.91-16.21-32.62-15.88-5.29,32.08ZM384.11,1061.26l16.41,21.09,17.95-25.84-34.35,4.74ZM503.15,1024.13l42.55,16.86,3.57-55.57-46.12,38.71ZM545.24,1119.78l31.72-24.62-46.95-17.79,15.23,42.41ZM521.12,1066.54l49.53,19.94-1.96-52.49-47.57,32.55ZM488.67,1064.07l40.39-9.66-31.23-29.74-9.16,39.4ZM463.92,1051.92l20.33,2.94-1.03-48.94-19.3,46ZM522.4,1091.7l-11.8-29.5-22.11,40.02,33.91-10.52ZM414.19,1019.91l-32.72,11.79,22.6,17.54,10.12-29.33ZM454.01,1153.29l42.55,16.86-4.44-40.38-38.12,23.52ZM355.5,1017.15l-5.94,32.59,30.23-16.38-24.29-16.21ZM521.96,1141.76l-5.94,32.59,30.23-16.38-24.29-16.21ZM196.16,1149.09l-29.79,34.23,51.15,22.61-21.37-56.85ZM153.94,1091.98l-4.89,30.2,57.49-3.43-52.6-26.77ZM263.72,1087.24l-17.42,42.33,55.52,4.31-38.09-46.63ZM232.74,1097.39l-36.24,41.65,58.36,23.26-22.12-64.91ZM239.32,1162.68l-8.78,21.32,35.7,6.38-26.92-27.7ZM231.62,1191.86l-14.57,39.86,41.17-3.58-26.61-36.28ZM227.46,1240.22l-17.58,42.25,37.34-5.41-19.76-36.84ZM269.84,1174.86l36.8,37.87,11.51-43.84-48.31,5.97ZM253.49,1198.15l15.7,38.12,16.31-32.4-32.01-5.72ZM283.62,1133.15l-21.31,16.13,25.6,18.29-4.29-34.41ZM319.16,1252.67l-17.42,42.33,55.52,4.31-38.09-46.63ZM222.96,1293.48l24.2,32.05,18.41-46.71-42.61,14.66ZM276.51,1270.07l-20.6,49.26,52.51-1.26-31.91-48ZM279.41,1237.66l9.12,40.52,30.15-30.84-39.27-9.68ZM291.89,1213.06l-3.21,20.29,48.95-.38-45.74-19.91ZM251.33,1271.01l29.66-11.41-39.73-22.64,10.07,34.05ZM324.56,1163.77l-11.35-32.87-17.83,22.37,29.19,10.51ZM190.66,1201.81l-17.42,42.33,40.44-3.9-23.01-38.43ZM328.09,1105.12l-32.51-6.37,15.98,30.44,16.53-24.07ZM201.29,1269.91l-32.51-6.37,15.98,30.44,16.53-24.07ZM88.85,741.13l-17.42,42.33,55.52,4.31-38.09-46.63ZM57.87,751.28l-36.24,41.65,58.36,23.26-22.12-64.91ZM64.46,816.57l-8.78,21.32,35.7,6.38-26.92-27.7ZM56.76,845.75l-14.57,39.86,41.17-3.58-26.61-36.28ZM52.59,894.11l-17.58,42.25,37.34-5.41-19.76-36.84ZM94.97,828.75l36.8,37.87,11.51-43.84-48.31,5.97ZM78.62,852.04l15.7,38.12,16.31-32.4-32.01-5.72ZM108.75,787.04l-21.31,16.13,25.6,18.29-4.29-34.41ZM48.09,947.37l24.2,32.05,18.41-46.71-42.61,14.66ZM101.65,923.96l-20.6,49.26,52.51-1.26-31.91-48ZM104.54,891.55l9.12,40.52,30.15-30.84-39.27-9.68ZM117.02,866.95l-3.21,20.29,48.95-.38-45.74-19.91ZM76.47,924.91l29.66-11.41-39.73-22.64,10.07,34.05ZM149.69,817.66l-11.35-32.87-17.83,22.37,29.19,10.51ZM153.23,759.01l-32.51-6.37,15.98,30.44,16.53-24.07ZM78.17,985.8l-17.42,42.33,55.52,4.31-38.09-46.63ZM47.19,995.96l-36.24,41.65,58.36,23.26-22.12-64.91ZM53.78,1061.25l-8.78,21.32,35.7,6.38-26.92-27.7ZM46.08,1090.42l-14.57,39.86,41.17-3.58-26.61-36.28ZM41.91,1138.79l-17.58,42.25,37.34-5.41-19.76-36.84ZM84.29,1073.43l36.8,37.87,11.51-43.84-48.31,5.97ZM67.94,1096.72l15.7,38.12,16.31-32.4-32.01-5.72ZM98.07,1031.71l-21.31,16.13,25.6,18.29-4.29-34.41ZM133.61,1151.23l-17.42,42.33,55.52,4.31-38.09-46.63ZM37.41,1192.04l24.2,32.05,18.41-46.71-42.61,14.66ZM90.97,1168.63l-20.6,49.26,52.51-1.26-31.91-48ZM93.86,1136.22l9.12,40.52,30.15-30.84-39.27-9.68ZM106.34,1111.63l-3.21,20.29,48.95-.38-45.74-19.91ZM65.79,1169.58l29.66-11.41-39.73-22.64,10.07,34.05ZM139.01,1062.33l-11.35-32.87-17.83,22.37,29.19,10.51ZM142.55,1003.69l-32.51-6.37,15.98,30.44,16.53-24.07ZM552.56,1216.66l-33.63-30.46-23.63,50.69,57.27-20.22ZM575.92,1170.94l-45.39,9.45,32.5,29.44,12.88-38.89ZM610.51,1175.59l-30.1-5.5,2.28,57.55,27.82-52.05ZM613.05,1285.44l-41.97-18.27-5.42,55.42,47.39-37.15ZM603.52,1254.26l-40.92-37.07-24.42,57.88,65.34-20.81ZM538.11,1259.54l-21.14-9.2-7.09,35.57,28.24-26.36ZM509.09,1251.26l-39.56-15.36,2.75,41.24,36.81-25.87ZM460.83,1246.13l-41.89-18.43,4.66,37.44,37.23-19.02ZM525.32,1289.81l-38.59,36.04,43.6,12.39-5-48.42ZM502.37,1272.99l-38.43,14.93,32.07,16.95,6.36-31.89ZM566.75,1304.42l-15.7-21.63-18.8,25.22,34.49-3.6ZM407.67,1240.56l-32.53,23.55,46.33,19.35-13.81-42.9ZM430,1294.57l-48.84-21.58.21,52.53,48.63-30.94ZM462.35,1298.12l-40.69,8.31,30.23,30.76,10.47-39.07ZM486.69,1311.09l-20.22-3.62-.6,48.95,20.82-45.33ZM429.56,1269.38l10.81,29.88,23.43-39.26-34.24,9.39ZM535.32,1344.74l33.09-10.69-22-18.28-11.09,28.97ZM499.96,1210.11l-41.97-18.27,3.09,40.51,38.88-22.24ZM593.88,1349.45l7.02-32.38-30.75,15.37,23.74,17.01ZM431.67,1219.37l7.02-32.38-30.75,15.37,23.74,17.01ZM325.72,205.6l19.68,26.94,15.49-19.13-35.17-7.81ZM282.78,251.08l30.72,16.18,4.17-31.1-34.9,14.92ZM269.76,350.65l30.72,16.18,4.17-31.1-34.9,14.92ZM507.2,377.46l30.72,16.18,4.17-31.1-34.9,14.92ZM385.16,407l21.44,8.49,5.9-35.78-27.34,27.29ZM151.55,363.34l21.44,8.49,5.9-35.78-27.34,27.29ZM503.12,651.34l21.44,8.49,5.9-35.78-27.34,27.29ZM282.43,705.68l31.72-24.62-46.95-17.79,15.23,42.41ZM410.34,599.22l31.72-24.62-46.95-17.79,15.23,42.41ZM390.43,714.11l31.72-24.62-46.95-17.79,15.23,42.41ZM512.04,532.94l33.42-31.12-33.76-2.25.33,33.36ZM509.12,607.81l20.14-49.45-52.5,1.75,32.36,47.7ZM330.66,655.3l20.14-49.45-52.5,1.75,32.36,47.7ZM443.25,653.77l20.14-49.45-52.5,1.75,32.36,47.7ZM399.74,588.15l-32.51-6.37,15.98,30.44,16.53-24.07ZM320.08,650.19l-32.51-6.37,15.98,30.44,16.53-24.07ZM484.76,577.43l-32.51-6.37,15.98,30.44,16.53-24.07ZM584.34,621.85l-32.51-6.37,15.98,30.44,16.53-24.07ZM510.04,827.13l-32.51-6.37,15.98,30.44,16.53-24.07ZM370.57,612.06l-30.3,29.74,39.19,9.66-8.89-39.4ZM179.85,516.32l-30.3,29.74,39.19,9.66-8.89-39.4ZM159.93,717.76l-30.3,29.74,39.19,9.66-8.89-39.4ZM474.7,606.14l15.7,38.12,16.31-32.4-32.01-5.72ZM385.85,626.82l12.12,36.33,16.3-32.41-28.42-3.92ZM317.68,662.06l15.7,38.12,16.31-32.4-32.01-5.72ZM521.43,798.4l15.7,38.12,16.31-32.4-32.01-5.72ZM281.68,858.91l15.7,38.12,16.31-32.4-32.01-5.72ZM361.34,816.02l15.7,38.12,16.31-32.4-32.01-5.72ZM263.3,1059.59l15.7,38.12,16.31-32.4-32.01-5.72ZM605.39,799.26l-8.78,21.32,35.7,6.38-26.92-27.7ZM619.56,834.73l15.7,38.12,16.31-32.4-32.01-5.72ZM630.54,759l-21.31,16.13,25.6,18.29-4.29-34.41ZM595.56,941l24.2,32.05,18.41-46.71-42.61,14.66ZM626.6,907.6l29.66-11.41-39.73-22.64,10.07,34.05ZM594.96,979.45l-36.24,41.65,58.36,23.26-22.12-64.91ZM594.71,1043.94l-8.78,21.32,35.7,6.38-26.92-27.7ZM587.01,1073.12l-14.57,39.86,41.17-3.58-26.61-36.28ZM582.85,1121.48l-17.58,42.25,37.34-5.41-19.76-36.84ZM623.7,1048.46l36.8,37.87,11.51-43.84-48.31,5.97ZM608.88,1079.41l15.7,38.12,16.31-32.4-32.01-5.72ZM627.52,985.3l-21.31,16.13,25.6,18.29-4.29-34.41ZM631.9,1151.33l-20.6,49.26,52.51-1.26-31.91-48ZM606.72,1152.27l29.66-11.41-39.73-22.64,10.07,34.05ZM453.73,139.77l-8.78,21.32,35.7,6.38-26.92-27.7ZM36,683.42l24.2,32.05,18.41-46.71-42.61,14.66ZM37.48,438.65l-20.6,49.26,52.51-1.26-31.91-48ZM36.81,565.98l29.66-11.41-39.73-22.64,10.07,34.05ZM35.45,589.34l-17.42,42.33,55.52,4.31-38.09-46.63ZM266.33,467.05l-8.78,21.32,35.7,6.38-26.92-27.7ZM273.39,511.83l15.7,38.12,16.31-32.4-32.01-5.72ZM56.88,712.62l-21.31,16.13,25.6,18.29-4.29-34.41ZM157.11,855.08l29.66-11.41-39.73-22.64,10.07,34.05ZM308.2,1062.75l-8.78,21.32,35.7,6.38-26.92-27.7ZM623.74,1265.8l-14.57,39.86,41.17-3.58-26.61-36.28ZM333.57,1303.26l-16.1,30.16,29.73-5.72-13.63-24.44ZM194.45,1076.77l15.7,38.12,16.31-32.4-32.01-5.72ZM170.2,1128.96l-21.31,16.13,25.6,18.29-4.29-34.41ZM602.05,1226.48l24.2,32.05,18.41-46.71-42.61,14.66ZM356.12,1199.25l-20.6,49.26,52.51-1.26-31.91-48ZM385.32,1236.19l29.66-11.41-39.73-22.64,10.07,34.05ZM63.02,1225.09l-17.42,42.33,55.52,4.31-38.09-46.63ZM97.91,1279.67l-36.24,41.65,58.36,23.26-22.12-64.91ZM115.44,1275.14l-8.78,21.32,35.7,6.38-26.92-27.7ZM207.87,1296.78l-14.57,39.86,41.17-3.58-26.61-36.28ZM274.17,1326.75l-17.58,42.25,37.34-5.41-19.76-36.84ZM102.85,1244.54l36.8,37.87,11.51-43.84-48.31,5.97ZM143.94,1311.49l15.7,38.12,16.31-32.4-32.01-5.72ZM344.69,1113.02l-21.31,16.13,25.6,18.29-4.29-34.41ZM339.37,1365.46l24.2,32.05,18.41-46.71-42.61,14.66ZM52.07,1311.41l-20.6,49.26,52.51-1.26-31.91-48ZM53.7,1305.46l29.66-11.41-39.73-22.64,10.07,34.05ZM120.03,1409.17l34.63,29.33,21.93-51.45-56.56,22.12ZM98.21,1455.65l45.05-10.96-33.47-28.35-11.58,39.3ZM63.48,1452.15l30.27,4.49-4.2-57.44-26.07,52.95ZM67.85,1373.29l42.13,35.68,22.48-58.66-64.62,22.98ZM162.32,1373.14l40.05,14.04-4.12-41.12-35.92,27.09ZM210.73,1376.67l42.48,17.02-5.9-37.27-36.57,20.25ZM172.82,1413.97l42.55,16.86-4.44-40.38-38.12,23.52ZM240.77,1402.44l-5.94,32.59,30.23-16.38-24.29-16.21ZM222.67,1568.49l34.63,29.33,21.93-51.45-56.56,22.12ZM200.85,1614.97l45.05-10.96-33.47-28.35-11.58,39.3ZM166.12,1611.47l30.27,4.49-4.2-57.44-26.07,52.95ZM159.92,1501.76l42.55,16.86,3.57-55.57-46.12,38.71ZM170.49,1532.61l42.13,35.68,22.48-58.66-64.62,22.98ZM235.68,1525.15l21.44,8.49,5.9-35.78-27.34,27.29ZM264.96,1532.46l40.05,14.04-4.12-41.12-35.92,27.09ZM313.37,1535.98l42.48,17.02-5.9-37.27-36.57,20.25ZM247.45,1494.48l37.37-37.3-43.99-10.93,6.61,48.23ZM270.96,1510.52l37.91-16.21-32.62-15.88-5.29,32.08ZM205.56,1481.26l16.41,21.09,17.95-25.84-34.35,4.74ZM324.6,1444.13l42.55,16.86,3.57-55.57-46.12,38.71ZM374.37,1544.46l34.09-21.22-44.87-22.53,10.78,43.76ZM357.12,1483.48l49.53,19.94-1.96-52.49-47.57,32.55ZM310.12,1484.07l40.39-9.66-31.23-29.74-9.16,39.4ZM285.36,1471.92l20.33,2.94-1.03-48.94-19.3,46ZM343.85,1511.7l-11.8-29.5-22.11,40.02,33.91-10.52ZM235.64,1439.91l-32.72,11.79,22.6,17.54,10.12-29.33ZM275.45,1573.29l42.55,16.86-4.44-40.38-38.12,23.52ZM176.95,1437.15l-5.94,32.59,30.23-16.38-24.29-16.21ZM343.4,1561.76l-5.94,32.59,30.23-16.38-24.29-16.21ZM464.04,1507.63l34.63,29.33,21.93-51.45-56.56,22.12ZM442.22,1554.11l45.05-10.96-33.47-28.35-11.58,39.3ZM402.13,1560.57l30.27,4.49-4.2-57.44-26.07,52.95ZM401.29,1440.91l42.55,16.86,3.57-55.57-46.12,38.71ZM411.86,1471.75l42.13,35.68,22.48-58.66-64.62,22.98ZM477.05,1464.3l21.44,8.49,5.9-35.78-27.34,27.29ZM506.33,1471.61l40.05,14.04-4.12-41.12-35.92,27.09ZM554.74,1475.13l42.48,17.02-5.9-37.27-36.57,20.25ZM488.82,1433.62l37.37-37.3-43.99-10.93,6.61,48.23ZM512.33,1449.66l37.91-16.21-32.62-15.88-5.29,32.08ZM446.93,1420.4l16.41,21.09,17.95-25.84-34.35,4.74ZM565.97,1383.27l42.55,16.86,3.57-55.57-46.12,38.71ZM608.05,1478.93l31.72-24.62-46.95-17.79,15.23,42.41ZM583.94,1425.68l49.53,19.94-1.96-52.49-47.57,32.55ZM551.49,1423.22l40.39-9.66-31.23-29.74-9.16,39.4ZM526.73,1411.06l20.33,2.94-1.03-48.94-19.3,46ZM585.22,1450.85l-11.8-29.5-22.11,40.02,33.91-10.52ZM477.01,1379.05l-32.72,11.79,22.6,17.54,10.12-29.33ZM516.82,1512.43l42.55,16.86-4.44-40.38-38.12,23.52ZM418.32,1376.3l-5.94,32.59,30.23-16.38-24.29-16.21ZM584.77,1500.9l-5.94,32.59,30.23-16.38-24.29-16.21ZM375.15,1632.74l42.55,16.86,3.57-55.57-46.12,38.71ZM462.69,1625.46l37.37-37.3-43.99-10.93,6.61,48.23ZM486.19,1641.5l37.91-16.21-32.62-15.88-5.29,32.08ZM420.79,1612.24l16.41,21.09,17.95-25.84-34.35,4.74ZM539.83,1575.11l42.55,16.86,3.57-55.57-46.12,38.71ZM557.8,1617.52l49.53,19.94-1.96-52.49-47.57,32.55ZM525.35,1615.05l40.39-9.66-31.23-29.74-9.16,39.4ZM500.6,1602.9l20.33,2.94-1.03-48.94-19.3,46ZM559.08,1642.68l-11.8-29.5-22.11,40.02,33.91-10.52ZM450.87,1570.89l-32.72,11.79,22.6,17.54,10.12-29.33ZM392.18,1568.13l-5.94,32.59,30.23-16.38-24.29-16.21ZM302.73,1635.09l42.55,16.86,3.57-55.57-46.12,38.71ZM263.49,1662.88l20.33,2.94-1.03-48.94-19.3,46ZM86.47,1469.81l-17.42,42.33,55.52,4.31-38.09-46.63ZM55.49,1479.97l-36.24,41.65,58.36,23.26-22.12-64.91ZM62.07,1545.25l-8.78,21.32,35.7,6.38-26.92-27.7ZM54.37,1574.43l-14.57,39.86,41.17-3.58-26.61-36.28ZM92.59,1557.43l36.8,37.87,11.51-43.84-48.31,5.97ZM76.24,1580.72l15.7,38.12,16.31-32.4-32.01-5.72ZM106.36,1515.72l-21.31,16.13,25.6,18.29-4.29-34.41ZM114.64,1595.64l-3.21,20.29,48.95-.38-45.74-19.91ZM147.31,1546.34l-11.35-32.87-17.83,22.37,29.19,10.51ZM150.84,1487.69l-32.51-6.37,15.98,30.44,16.53-24.07ZM500.74,1380.02l21.44,8.49,5.9-35.78-27.34,27.29ZM280.04,1434.36l31.72-24.62-46.95-17.79,15.23,42.41ZM388.04,1442.79l31.72-24.62-46.95-17.79,15.23,42.41ZM328.27,1383.98l20.14-49.45-52.5,1.75,32.36,47.7ZM317.7,1378.87l-32.51-6.37,15.98,30.44,16.53-24.07ZM507.65,1555.81l-32.51-6.37,15.98,30.44,16.53-24.07ZM157.55,1446.45l-30.3,29.74,39.19,9.66-8.89-39.4ZM383.47,1355.51l12.12,36.33,16.3-32.41-28.42-3.92ZM315.3,1390.74l15.7,38.12,16.31-32.4-32.01-5.72ZM519.04,1527.08l15.7,38.12,16.31-32.4-32.01-5.72ZM279.3,1587.59l15.7,38.12,16.31-32.4-32.01-5.72ZM358.96,1544.7l15.7,38.12,16.31-32.4-32.01-5.72ZM603.01,1527.94l-8.78,21.32,35.7,6.38-26.92-27.7ZM617.17,1563.41l15.7,38.12,16.31-32.4-32.01-5.72ZM628.15,1487.68l-21.31,16.13,25.6,18.29-4.29-34.41ZM624.21,1636.28l29.66-11.41-39.73-22.64,10.07,34.05ZM33.62,1412.1l24.2,32.05,18.41-46.71-42.61,14.66ZM54.49,1441.3l-21.31,16.13,25.6,18.29-4.29-34.41ZM154.72,1583.76l29.66-11.41-39.73-22.64,10.07,34.05ZM29.65,1694.87l34.63,29.33,21.93-51.45-56.56,22.12ZM71.94,1658.85l40.05,14.04-4.12-41.12-35.92,27.09ZM120.35,1662.37l42.48,17.02-5.9-37.27-36.57,20.25ZM82.43,1699.67l42.55,16.86-4.44-40.38-38.12,23.52ZM150.38,1688.14l-5.94,32.59,30.23-16.38-24.29-16.21ZM234.22,1729.83l42.55,16.86,3.57-55.57-46.12,38.71ZM194.98,1757.62l20.33,2.94-1.03-48.94-19.3,46ZM178.95,1718.72l-32.72,11.79,22.6,17.54,10.12-29.33ZM105.41,1715.64l-5.94,32.59,30.23-16.38-24.29-16.21ZM361.79,1631.46l-5.94,32.59,30.23-16.38-24.29-16.21ZM310.91,1726.61l42.55,16.86,3.57-55.57-46.12,38.71ZM532.11,1660.94l42.13,35.68,22.48-58.66-64.62,22.98ZM389.73,1738.51l21.44,8.49,5.9-35.78-27.34,27.29ZM590.74,1662.79l42.48,17.02-5.9-37.27-36.57,20.25ZM398.44,1719.32l37.37-37.3-43.99-10.93,6.61,48.23ZM421.95,1735.37l37.91-16.21-32.62-15.88-5.29,32.08ZM356.55,1706.1l16.41,21.09,17.95-25.84-34.35,4.74ZM475.59,1668.98l42.55,16.86,3.57-55.57-46.12,38.71ZM493.55,1711.39l49.53,19.94-1.96-52.49-47.57,32.55ZM461.1,1708.92l40.39-9.66-31.23-29.74-9.16,39.4ZM436.35,1696.77l20.33,2.94-1.03-48.94-19.3,46ZM494.83,1736.55l-11.8-29.5-22.11,40.02,33.91-10.52ZM386.62,1664.76l-32.72,11.79,22.6,17.54,10.12-29.33ZM327.94,1662l-5.94,32.59,30.23-16.38-24.29-16.21ZM621.54,1684.73l-5.94,32.59,30.23-16.38-24.29-16.21ZM190.97,1652.81l-11.35-32.87-17.83,22.37,29.19,10.51ZM410.35,1665.73l21.44,8.49,5.9-35.78-27.34,27.29ZM189.66,1720.07l31.72-24.62-46.95-17.79,15.23,42.41ZM297.66,1728.49l31.72-24.62-46.95-17.79,15.23,42.41ZM237.89,1669.69l20.14-49.45-52.5,1.75,32.36,47.7ZM227.31,1664.58l-32.51-6.37,15.98,30.44,16.53-24.07ZM485.58,1635.62l-32.51-6.37,15.98,30.44,16.53-24.07ZM293.08,1641.21l12.12,36.33,16.3-32.41-28.42-3.92ZM224.91,1676.44l15.7,38.12,16.31-32.4-32.01-5.72ZM558.93,1697.18l-8.78,21.32,35.7,6.38-26.92-27.7ZM605.17,1676.11l-21.31,16.13,25.6,18.29-4.29-34.41ZM39.75,1633.46l24.2,32.05,18.41-46.71-42.61,14.66ZM373.13,1588.36l-21.31,16.13,25.6,18.29-4.29-34.41ZM122.04,1651.72l29.4-11.96-35.19-12.84,5.79,24.8ZM437.32,1326.79l-18.46,41.89,40.52-2.91-22.06-38.98ZM382.31,1326.58l-32.35-7.16,15.23,30.82,17.12-23.66ZM484.69,1334.86l-9.3,21.1,35.53,7.25-26.24-28.35ZM145.4,1351.57l-18.62,41.8,37.47-4.49-18.85-37.31ZM543.94,1343.85l14.76,38.5,17.1-31.99-31.86-6.5ZM627.74,1309.25l-21.7,15.6,25.14,18.91-3.44-34.51ZM86.39,1218.77l-3.71,20.21,48.94.82-45.24-21.02ZM155.49,1309.41l29.93-10.68-39.16-23.61,9.23,34.28ZM372.26,1283.65l-10.54-33.14-18.38,21.92,28.92,11.22ZM427.78,1330.81l-32.35-7.16,15.23,30.82,17.12-23.66ZM275.92,881.63l-20.98-9.58-7.72,35.44,28.7-25.86ZM384.37,862.72l-20.16-3.98-1.47,48.93,21.62-44.95ZM154.4,1233.15l7.59-32.25-31.02,14.82,23.43,17.43Z"/>
</svg>