<?xml version="1.0" encoding="UTF-8"?>
<svg id="Lag_1" data-name="Lag 1" xmlns="http://www.w3.org/2000/svg" xmlns:xlink="http://www.w3.org/1999/xlink" viewBox="0 0 598.11 1700.79">
  <defs>
    <style>
      .cls-1 {
        fill: url(#linear-gradient-2);
      }

      .cls-2 {
        fill: url(#linear-gradient);
      }
    </style>
    <linearGradient id="linear-gradient" x1="-1414.54" y1="2163.41" x2="344.17" y2="2163.41" gradientTransform="translate(1964.91 1375.79) rotate(89.56)" gradientUnits="userSpaceOnUse">
      <stop offset="0" stop-color="#49c2f1"/>
      <stop offset="1" stop-color="#49c2f1" stop-opacity=".05"/>
    </linearGradient>
    <linearGradient id="linear-gradient-2" x1="-1414.53" y1="2004.22" x2="344.17" y2="2004.22" gradientTransform="translate(-1205.36 1375.79) rotate(90.44) scale(1 -1)" xlink:href="#linear-gradient"/>
  </defs>
  <path class="cls-2" d="M-114.11,42.8l-29.86,39.57-6.5-35.82,36.36-3.74ZM-247.57-7.77l74.83,41.8,11.32-45.82-86.15,4.02ZM29.51,317.96l-27-40.71-25.36,33.64,52.36,7.07ZM80.46,269.22l-69.3,9.88,30.09,42.12,39.21-52ZM99.02,337.47l-35.93-24.79-6.07,40.2,41.99-15.41ZM7.03,354.25l41.37-24.55-34.29-6.03-7.09,30.58ZM-206.76,34.82l20.55,31.28,19.83-27.57-40.37-3.71ZM-159.07-13.19l3.46,55.57,41.29-16.86-44.75-38.71ZM38.28,226.39l-4.3,40.38,41.29-16.86-36.98-23.52ZM108.6,187.31l-37.56,22.78,40.86,17.68-3.3-40.46ZM-1.53,117.99l21.28,51.45,33.6-29.33L-1.53,117.99ZM35.71,209.24l-48.87,18.23,33.76,27.12,15.11-45.35ZM-8.8,153.19l1.32,62.69,50.86-20.77-52.18-41.92ZM63.29,147.28l-32.47,28.35,43.71,10.96-11.23-39.3ZM82.93,130.13l-4.07,57.44,29.37-4.49-25.29-52.95ZM75.14,230.15l-21.45-40.02-11.45,29.5,32.9,10.52ZM69.48,34.67l3.46,55.57,41.29-16.86-44.75-38.71ZM41.29,81.24l21.81,58.66,40.88-35.68-62.69-22.98ZM14.2,69.48l5.73,35.78,20.8-8.49-26.53-27.29ZM-22.54,76.99l-4,41.12,38.86-14.04-34.86-27.09ZM-70.14,87.35l-5.73,37.27,41.21-17.02-35.49-20.25ZM35.72,17.86L-6.96,28.79l36.26,37.3,6.42-48.23ZM1.36,50.05l-31.65,15.88L6.5,82.14,1.36,50.05ZM36.62,48.13l17.41,25.84,15.92-21.09-33.33-4.74ZM-90.3-22.96l3.46,55.57L-45.55,15.75l-44.75-38.71ZM-71.61,68.98l-45.55,17.79,30.78,24.62,14.77-42.41ZM-109.13,25.61l-1.9,52.49,48.06-19.94-46.15-32.55ZM-40.38,16.29l-30.3,29.74,39.19,9.66-8.89-39.4ZM-26.2-2.46l-1,48.94,19.73-2.94L-26.2-2.46ZM-31.32,93.84l-21.45-40.02-11.45,29.5,32.9,10.52ZM125.07,308.91l-35.3-38.13-23.55,35.52,58.84,2.61ZM50.59,40.85l21.93-17.54-31.74-11.79,9.82,29.33ZM-186.46,75.97l28.34,11.47.77-34.72-29.11,23.25ZM-34.85,121.38l-4.3,40.38L2.14,144.9l-36.98-23.52ZM74.08,252.32l29.33,16.38-5.76-32.59-23.57,16.21ZM74.14,24.98l29.33,16.38-5.76-32.59-23.57,16.21ZM-293.51,49.13l30.78,39.57,6.7-35.82-37.47-3.74ZM-387.57,317.23l-26.14-33.64-27.83,40.71,53.97-7.07ZM-453.64,327.56l31.01-42.12-71.42-9.88,40.41,52ZM-470.12,360.91l-6.64-41.98-38.98,25.84,45.62,16.14ZM-425.67,330.01l-35.34,6.03,42.64,24.55-7.3-30.58ZM-244.44,42.09l33.31,8.28-3.56-37.6-29.75,29.33ZM-293.29,31.85l42.55,16.86,3.57-55.57-46.12,38.71ZM-488.69,256.25l42.55,16.86-4.44-40.38-38.12,23.52ZM-514.06,241.76l32.4-32.18-44.43-6.59,12.03,38.78ZM-466.11,146.44l34.63,29.33,21.93-51.45-56.56,22.12ZM-432.35,260.93l34.79-27.12-50.36-18.23,15.57,45.35ZM-455.83,201.45l52.42,20.77,1.36-62.69-53.78,41.92ZM-487.93,192.92l45.05-10.96-33.47-28.35-11.58,39.3ZM-522.66,189.42l30.27,4.49-4.2-57.44-26.07,52.95ZM-454.65,225.96l-11.8-29.5-22.11,40.02,33.91-10.52ZM-528.86,79.71l42.55,16.86,3.57-55.57-46.12,38.71ZM-518.29,110.56l42.13,35.68,22.48-58.66-64.62,22.98ZM-453.09,103.1l21.44,8.49,5.9-35.78-27.34,27.29ZM-423.82,110.41l40.05,14.04-4.12-41.12-35.92,27.09ZM-375.4,113.94l42.48,17.02-5.9-37.27-36.57,20.25ZM-441.32,72.43l37.37-37.3-43.99-10.93,6.61,48.23ZM-417.81,88.47l37.91-16.21-32.62-15.88-5.29,32.08ZM-483.21,59.21l16.41,21.09,17.95-25.84-34.35,4.74ZM-364.18,22.08l42.55,16.86,3.57-55.57-46.12,38.71ZM-322.09,117.73l31.72-24.62-46.95-17.79,15.23,42.41ZM-346.21,64.49l49.53,19.94-1.96-52.49-47.57,32.55ZM-378.66,62.03l40.39-9.66-31.23-29.74-9.16,39.4ZM-403.41,49.87l20.33,2.94-1.03-48.94-19.3,46ZM-344.93,89.66l-11.8-29.5-22.11,40.02,33.91-10.52ZM-479.37,312.63l-24.27-35.52-36.38,38.13,60.65-2.61ZM-453.14,17.86l-32.72,11.79,22.6,17.54,10.12-29.33ZM-251.53,67.67l30.72,16.18,4.17-31.1-34.9,14.92ZM-413.32,151.24l42.55,16.86-4.44-40.38-38.12,23.52ZM-516.11,246.26l-5.94,32.59,30.23-16.38-24.29-16.21ZM-511.83,15.11l-5.94,32.59,30.23-16.38-24.29-16.21ZM-184.76,332l34.63,29.33,21.93-51.45-56.56,22.12ZM-206.58,378.47l45.05-10.96-33.47-28.35-11.58,39.3ZM-241.31,374.98l30.27,4.49-4.2-57.44-26.07,52.95ZM-247.51,265.27l42.55,16.86,3.57-55.57-46.12,38.71ZM-236.94,296.11l42.13,35.68,22.48-58.66-64.62,22.98ZM-171.74,288.66l21.44,8.49,5.9-35.78-27.34,27.29ZM-142.47,295.97l40.05,14.04-4.12-41.12-35.92,27.09ZM-94.05,299.49l42.48,17.02-5.9-37.27-36.57,20.25ZM-159.97,257.98l37.37-37.3-43.99-10.93,6.61,48.23ZM-136.47,274.03l37.91-16.21-32.62-15.88-5.29,32.08ZM-201.87,244.76l16.41,21.09,17.95-25.84-34.35,4.74ZM-82.83,207.64l42.55,16.86,3.57-55.57-46.12,38.71ZM-40.74,303.29l31.72-24.62-46.95-17.79,15.23,42.41ZM-64.86,250.05l49.53,19.94-1.96-52.49-47.57,32.55ZM-97.31,247.58l40.39-9.66-31.23-29.74-9.16,39.4ZM-121.93,236.25l18.7,2.36-.5-42.44-18.2,40.08ZM-63.58,275.21l-11.8-29.5-22.11,40.02,33.91-10.52ZM-171.79,203.42l-32.72,11.79,22.6,17.54,10.12-29.33ZM-131.97,336.79l42.55,16.86-4.44-40.38-38.12,23.52ZM-64.02,325.26l-5.94,32.59,30.23-16.38-24.29-16.21ZM-288.03,253.95l30.27,4.49-4.2-57.44-26.07,52.95ZM-294.23,144.25l42.55,16.86,3.57-55.57-46.12,38.71ZM-218.47,167.64l21.44,8.49,5.9-35.78-27.34,27.29ZM-189.19,174.95l40.05,14.04-4.12-41.12-35.92,27.09ZM-140.78,178.47l42.48,17.02-5.9-37.27-36.57,20.25ZM-206.7,136.96l37.37-37.3-43.99-10.93,6.61,48.23ZM-183.19,153l37.91-16.21-32.62-15.88-5.29,32.08ZM-248.59,123.74l16.41,21.09,17.95-25.84-34.35,4.74ZM-87.47,182.27l31.72-24.62-46.95-17.79,15.23,42.41ZM-144.03,126.56l40.39-9.66-31.23-29.74-9.16,39.4ZM-168.79,114.41l20.33,2.94-1.03-48.94-19.3,46ZM-110.3,154.19l-11.8-29.5-22.11,40.02,33.91-10.52ZM-215.45,86.22l-32.72,11.79,22.6,17.54,10.12-29.33ZM-285.63,92.66l-5.94,32.59,30.23-16.38-24.29-16.21ZM-387.74,274.55l34.63,29.33,21.93-51.45-56.56,22.12ZM-425.15,269.97l42.01-1.31,1.86-35.03-43.87,36.34ZM-374.72,231.21l21.44,8.49,5.9-35.78-27.34,27.29ZM-345.45,238.52l40.05,14.04-4.12-41.12-35.92,27.09ZM-359.89,193.64l37.37-37.3-43.99-10.93,6.61,48.23ZM-339.44,216.58l37.91-16.21-32.62-15.88-5.29,32.08ZM-392.87,175.69l-8.31,25.4,31.46.43-23.14-25.83ZM-267.84,192.6l49.53,19.94-1.96-52.49-47.57,32.55ZM-300.29,190.13l40.39-9.66-31.23-29.74-9.16,39.4ZM-325.04,177.98l20.33,2.94-1.03-48.94-19.3,46ZM-279.56,220.5l-10.54-25.09-11.4,30.7,21.95-5.61ZM-334.95,279.35l42.55,16.86-4.44-40.38-38.12,23.52ZM-267,267.82l-5.94,32.59,30.23-16.38-24.29-16.21ZM-423.74,472.17l34.63,29.33,21.93-51.45-56.56,22.12ZM-445.56,518.64l45.05-10.96-33.47-28.35-11.58,39.3ZM-480.29,515.15l30.27,4.49-4.2-57.44-26.07,52.95ZM-486.49,405.44l42.55,16.86,3.57-55.57-46.12,38.71ZM-475.92,436.28l42.13,35.68,22.48-58.66-64.62,22.98ZM-410.72,428.83l21.44,8.49,5.9-35.78-27.34,27.29ZM-381.45,436.14l40.05,14.04-4.12-41.12-35.92,27.09ZM-333.03,439.66l42.48,17.02-5.9-37.27-36.57,20.25ZM-398.95,398.15l37.37-37.3-43.99-10.93,6.61,48.23ZM-375.44,414.2l37.91-16.21-32.62-15.88-5.29,32.08ZM-440.84,384.93l16.41,21.09,17.95-25.84-34.35,4.74ZM-321.81,347.81l42.55,16.86,3.57-55.57-46.12,38.71ZM-279.72,443.46l31.72-24.62-46.95-17.79,15.23,42.41ZM-303.84,390.22l49.53,19.94-1.96-52.49-47.57,32.55ZM-336.29,387.75l40.39-9.66-31.23-29.74-9.16,39.4ZM-361.04,375.6l20.33,2.94-1.03-48.94-19.3,46ZM-302.56,415.38l-11.8-29.5-22.11,40.02,33.91-10.52ZM-309.66,299.16l-32.72,11.79,22.6,17.54,10.12-29.33ZM-370.95,476.96l42.55,16.86-4.44-40.38-38.12,23.52ZM-469.46,340.83l-5.94,32.59,30.23-16.38-24.29-16.21ZM-303,465.43l-5.94,32.59,30.23-16.38-24.29-16.21ZM-195.48,515.06l34.63,29.33,21.93-51.45-56.56,22.12ZM-217.3,561.54l45.05-10.96-33.47-28.35-11.58,39.3ZM-252.03,558.04l30.27,4.49-4.2-57.44-26.07,52.95ZM-258.23,448.33l42.55,16.86,3.57-55.57-46.12,38.71ZM-247.66,479.18l42.13,35.68,22.48-58.66-64.62,22.98ZM-182.47,471.72l21.44,8.49,5.9-35.78-27.34,27.29ZM-153.19,479.03l40.05,14.04-4.12-41.12-35.92,27.09ZM-104.78,482.55l42.48,17.02-5.9-37.27-36.57,20.25ZM-170.7,441.05l37.37-37.3-43.99-10.93,6.61,48.23ZM-147.19,457.09l37.91-16.21-32.62-15.88-5.29,32.08ZM-212.59,427.83l16.41,21.09,17.95-25.84-34.35,4.74ZM-93.55,390.7l42.55,16.86,3.57-55.57-46.12,38.71ZM-51.47,486.35l31.72-24.62-46.95-17.79,15.23,42.41ZM-75.58,433.11l49.53,19.94-1.96-52.49-47.57,32.55ZM-108.03,430.64l40.39-9.66-31.23-29.74-9.16,39.4ZM-132.79,418.49l20.33,2.94-1.03-48.94-19.3,46ZM-74.3,458.27l-11.8-29.5-22.11,40.02,33.91-10.52ZM-182.51,386.48l-32.72,11.79,22.6,17.54,10.12-29.33ZM-142.69,519.86l42.55,16.86-4.44-40.38-38.12,23.52ZM-241.2,383.72l-5.94,32.59,30.23-16.38-24.29-16.21ZM-74.74,508.33l-5.94,32.59,30.23-16.38-24.29-16.21ZM60.71,594.09l17.03-42.49-55.55-3.79,38.52,46.28ZM91.6,583.64l35.85-41.99-58.57-22.72,22.72,64.71ZM84.41,518.42l8.58-21.41-35.76-6.04,27.18,27.45ZM91.84,489.17l14.19-39.99-41.14,3.96,26.94,36.03ZM95.55,440.77l17.19-42.41-37.29,5.75,20.1,36.66ZM53.78,506.52l-37.15-37.52-11.1,43.94,48.26-6.42ZM69.92,483.08l-16.05-37.98-16.01,32.55,32.06,5.42ZM40.39,548.36l21.16-16.32-25.76-18.05,4.61,34.37ZM3.74,429.18l17.03-42.49-55.55-3.79L3.74,429.18ZM99.56,387.47l-24.5-31.82-17.98,46.88,42.47-15.06ZM46.22,411.38l20.14-49.45-52.5,1.75,32.36,47.7ZM43.63,443.82l-9.5-40.43-29.86,31.11,39.36,9.32ZM31.37,468.52l3.02-20.32-48.94.84,45.92,19.48ZM71.39,410.2l-29.55,11.68,39.93,22.27-10.39-33.95ZM-.83,518.12l11.66,32.76,17.63-22.53-29.28-10.23ZM-3.82,576.8l32.57,6.07-16.26-30.29-16.31,24.22ZM-417.61,657.53l34.63,29.33,21.93-51.45-56.56,22.12ZM-439.43,704l45.05-10.96-33.47-28.35-11.58,39.3ZM-474.16,700.51l30.27,4.49-4.2-57.44-26.07,52.95ZM-480.36,590.8l42.55,16.86,3.57-55.57-46.12,38.71ZM-469.79,621.64l42.13,35.68,22.48-58.66-64.62,22.98ZM-404.6,614.19l21.44,8.49,5.9-35.78-27.34,27.29ZM-375.32,621.5l40.05,14.04-4.12-41.12-35.92,27.09ZM-326.91,625.02l42.48,17.02-5.9-37.27-36.57,20.25ZM-392.82,583.52l37.37-37.3-43.99-10.93,6.61,48.23ZM-369.32,599.56l37.91-16.21-32.62-15.88-5.29,32.08ZM-434.72,570.3l16.41,21.09,17.95-25.84-34.35,4.74ZM-315.68,533.17l42.55,16.86,3.57-55.57-46.12,38.71ZM-273.59,628.82l31.72-24.62-46.95-17.79,15.23,42.41ZM-297.71,575.58l49.53,19.94-1.96-52.49-47.57,32.55ZM-330.16,573.11l40.39-9.66-31.23-29.74-9.16,39.4ZM-354.92,560.96l20.33,2.94-1.03-48.94-19.3,46ZM-296.43,600.74l-11.8-29.5-22.11,40.02,33.91-10.52ZM-404.64,528.95l-32.72,11.79,22.6,17.54,10.12-29.33ZM-364.82,662.33l42.55,16.86-4.44-40.38-38.12,23.52ZM-463.33,526.19l-5.94,32.59,30.23-16.38-24.29-16.21ZM-296.87,650.8l-5.94,32.59,30.23-16.38-24.29-16.21ZM-314.97,816.85l34.63,29.33,21.93-51.45-56.56,22.12ZM-336.79,863.32l45.05-10.96-33.47-28.35-11.58,39.3ZM-371.52,859.83l30.27,4.49-4.2-57.44-26.07,52.95ZM-377.72,750.12l42.55,16.86,3.57-55.57-46.12,38.71ZM-367.15,780.96l42.13,35.68,22.48-58.66-64.62,22.98ZM-301.96,773.51l21.44,8.49,5.9-35.78-27.34,27.29ZM-272.68,780.82l40.05,14.04-4.12-41.12-35.92,27.09ZM-224.27,784.34l42.48,17.02-5.9-37.27-36.57,20.25ZM-290.19,742.84l37.37-37.3-43.99-10.93,6.61,48.23ZM-266.68,758.88l37.91-16.21-32.62-15.88-5.29,32.08ZM-332.08,729.61l16.41,21.09,17.95-25.84-34.35,4.74ZM-213.04,692.49l42.55,16.86,3.57-55.57-46.12,38.71ZM-170.96,788.14l31.72-24.62-46.95-17.79,15.23,42.41ZM-195.07,734.9l49.53,19.94-1.96-52.49-47.57,32.55ZM-227.52,732.43l40.39-9.66-31.23-29.74-9.16,39.4ZM-252.28,720.28l20.33,2.94-1.03-48.94-19.3,46ZM-193.79,760.06l-11.8-29.5-22.11,40.02,33.91-10.52ZM-302,688.27l-32.72,11.79,22.6,17.54,10.12-29.33ZM-262.18,821.64l42.55,16.86-4.44-40.38-38.12,23.52ZM-360.69,685.51l-5.94,32.59,30.23-16.38-24.29-16.21ZM-194.23,810.11l-5.94,32.59,30.23-16.38-24.29-16.21ZM-73.6,755.99l34.63,29.33,21.93-51.45-56.56,22.12ZM-95.42,802.47l45.05-10.96-33.47-28.35-11.58,39.3ZM-130.15,798.97l30.27,4.49-4.2-57.44-26.07,52.95ZM-136.35,689.26l42.55,16.86,3.57-55.57-46.12,38.71ZM-125.78,720.11l42.13,35.68,22.48-58.66-64.62,22.98ZM-60.59,712.65l21.44,8.49,5.9-35.78-27.34,27.29ZM-31.31,719.96l40.05,14.04-4.12-41.12-35.92,27.09ZM17.1,723.49l42.48,17.02-5.9-37.27-36.57,20.25ZM-48.82,681.98l37.37-37.3-43.99-10.93,6.61,48.23ZM-25.31,698.02l37.91-16.21-32.62-15.88-5.29,32.08ZM-90.71,668.76l16.41,21.09,17.95-25.84-34.35,4.74ZM28.33,631.63l42.55,16.86,3.57-55.57-46.12,38.71ZM70.41,727.28l31.72-24.62-46.95-17.79,15.23,42.41ZM46.3,674.04l49.53,19.94-1.96-52.49-47.57,32.55ZM13.85,671.57l40.39-9.66-31.23-29.74-9.16,39.4ZM-10.91,659.42l20.33,2.94-1.03-48.94-19.3,46ZM47.58,699.21l-11.8-29.5-22.11,40.02,33.91-10.52ZM-60.63,627.41l-32.72,11.79,22.6,17.54,10.12-29.33ZM-20.81,760.79l42.55,16.86-4.44-40.38-38.12,23.52ZM-119.32,624.66l-5.94,32.59,30.23-16.38-24.29-16.21ZM47.14,749.26l-5.94,32.59,30.23-16.38-24.29-16.21ZM-99.74,947.83l34.63,29.33,21.93-51.45-56.56,22.12ZM-121.56,994.3l45.05-10.96-33.47-28.35-11.58,39.3ZM-156.29,990.81l30.27,4.49-4.2-57.44-26.07,52.95ZM-162.49,881.1l42.55,16.86,3.57-55.57-46.12,38.71ZM-151.92,911.94l42.13,35.68,22.48-58.66-64.62,22.98ZM-86.72,904.49l21.44,8.49,5.9-35.78-27.34,27.29ZM-57.45,911.8l40.05,14.04-4.12-41.12-35.92,27.09ZM-9.03,915.32l42.48,17.02-5.9-37.27-36.57,20.25ZM-74.95,873.81l37.37-37.3-43.99-10.93,6.61,48.23ZM-51.44,889.86l37.91-16.21-32.62-15.88-5.29,32.08ZM-116.84,860.59l16.41,21.09,17.95-25.84-34.35,4.74ZM2.19,823.47l42.55,16.86,3.57-55.57-46.12,38.71ZM44.28,919.12l31.72-24.62-46.95-17.79,15.23,42.41ZM20.16,865.88l49.53,19.94-1.96-52.49-47.57,32.55ZM-12.29,863.41l40.39-9.66-31.23-29.74-9.16,39.4ZM-37.04,851.26l20.33,2.94-1.03-48.94-19.3,46ZM21.44,891.04l-11.8-29.5-22.11,40.02,33.91-10.52ZM-86.77,819.25l-32.72,11.79,22.6,17.54,10.12-29.33ZM-46.95,952.62l42.55,16.86-4.44-40.38-38.12,23.52ZM-145.46,816.49l-5.94,32.59,30.23-16.38-24.29-16.21ZM21,941.09l-5.94,32.59,30.23-16.38-24.29-16.21ZM-336.84,1007.81l34.63,29.33,21.93-51.45-56.56,22.12ZM-358.66,1054.28l45.05-10.96-33.47-28.35-11.58,39.3ZM-393.39,1050.79l30.27,4.49-4.2-57.44-26.07,52.95ZM-399.59,941.08l42.55,16.86,3.57-55.57-46.12,38.71ZM-389.02,971.92l42.13,35.68,22.48-58.66-64.62,22.98ZM-323.83,964.47l21.44,8.49,5.9-35.78-27.34,27.29ZM-294.55,971.78l40.05,14.04-4.12-41.12-35.92,27.09ZM-246.14,975.3l42.48,17.02-5.9-37.27-36.57,20.25ZM-312.05,933.79l37.37-37.3-43.99-10.93,6.61,48.23ZM-288.55,949.84l37.91-16.21-32.62-15.88-5.29,32.08ZM-353.95,920.57l16.41,21.09,17.95-25.84-34.35,4.74ZM-234.91,883.45l42.55,16.86,3.57-55.57-46.12,38.71ZM-192.82,979.1l31.72-24.62-46.95-17.79,15.23,42.41ZM-216.94,925.86l49.53,19.94-1.96-52.49-47.57,32.55ZM-249.39,923.39l40.39-9.66-31.23-29.74-9.16,39.4ZM-274.15,911.24l20.33,2.94-1.03-48.94-19.3,46ZM-215.66,951.02l-11.8-29.5-22.11,40.02,33.91-10.52ZM-323.87,879.23l-32.72,11.79,22.6,17.54,10.12-29.33ZM-284.05,1012.6l42.55,16.86-4.44-40.38-38.12,23.52ZM-382.56,876.47l-5.94,32.59,30.23-16.38-24.29-16.21ZM-216.1,1001.07l-5.94,32.59,30.23-16.38-24.29-16.21ZM-138.8,1125.53l34.63,29.33,21.93-51.45-56.56,22.12ZM-160.62,1172l45.05-10.96-33.47-28.35-11.58,39.3ZM-195.35,1168.51l30.27,4.49-4.2-57.44-26.07,52.95ZM-201.55,1058.8l42.55,16.86,3.57-55.57-46.12,38.71ZM-190.98,1089.64l42.13,35.68,22.48-58.66-64.62,22.98ZM-125.79,1082.19l21.44,8.49,5.9-35.78-27.34,27.29ZM-96.51,1089.5l40.05,14.04-4.12-41.12-35.92,27.09ZM-48.1,1093.02l42.48,17.02-5.9-37.27-36.57,20.25ZM-114.01,1051.52l37.37-37.3-43.99-10.93,6.61,48.23ZM-90.51,1067.56l37.91-16.21-32.62-15.88-5.29,32.08ZM-155.91,1038.3l16.41,21.09,17.95-25.84-34.35,4.74ZM-36.87,1001.17l42.55,16.86,3.57-55.57-46.12,38.71ZM5.21,1096.82l31.72-24.62-46.95-17.79,15.23,42.41ZM-18.9,1043.58l49.53,19.94-1.96-52.49-47.57,32.55ZM-51.35,1041.11l40.39-9.66-31.23-29.74-9.16,39.4ZM-76.11,1028.96l20.33,2.94-1.03-48.94-19.3,46ZM-17.62,1068.74l-11.8-29.5-22.11,40.02,33.91-10.52ZM-125.83,996.95l-32.72,11.79,22.6,17.54,10.12-29.33ZM-86.01,1130.33l42.55,16.86-4.44-40.38-38.12,23.52ZM-184.52,994.19l-5.94,32.59,30.23-16.38-24.29-16.21ZM-18.06,1118.8l-5.94,32.59,30.23-16.38-24.29-16.21ZM-343.86,1126.13l-29.79,34.23,51.15,22.61-21.37-56.85ZM-386.08,1069.01l-4.89,30.2,57.49-3.43-52.6-26.77ZM-276.3,1064.27l-17.42,42.33,55.52,4.31-38.09-46.63ZM-307.29,1074.43l-36.24,41.65,58.36,23.26-22.12-64.91ZM-300.7,1139.72l-8.78,21.32,35.7,6.38-26.92-27.7ZM-308.4,1168.9l-14.57,39.86,41.17-3.58-26.61-36.28ZM-312.56,1217.26l-17.58,42.25,37.34-5.41-19.76-36.84ZM-270.18,1151.9l36.8,37.87,11.51-43.84-48.31,5.97ZM-286.54,1175.19l15.7,38.12,16.31-32.4-32.01-5.72ZM-256.41,1110.18l-21.31,16.13,25.6,18.29-4.29-34.41ZM-220.87,1229.7l-17.42,42.33,55.52,4.31-38.09-46.63ZM-317.07,1270.51l24.2,32.05,18.41-46.71-42.61,14.66ZM-263.51,1247.11l-20.6,49.26,52.51-1.26-31.91-48ZM-260.61,1214.69l9.12,40.52,30.15-30.84-39.27-9.68ZM-248.13,1190.1l-3.21,20.29,48.95-.38-45.74-19.91ZM-288.69,1248.05l29.66-11.41-39.73-22.64,10.07,34.05ZM-215.46,1140.81l-11.35-32.87-17.83,22.37,29.19,10.51ZM-349.36,1178.85l-17.42,42.33,40.44-3.9-23.01-38.43ZM-211.93,1082.16l-32.51-6.37,15.98,30.44,16.53-24.07ZM-338.73,1246.95l-32.51-6.37,15.98,30.44,16.53-24.07ZM-451.17,718.16l-17.42,42.33,55.52,4.31-38.09-46.63ZM-482.15,728.32l-36.24,41.65,58.36,23.26-22.12-64.91ZM-475.57,793.61l-8.78,21.32,35.7,6.38-26.92-27.7ZM-483.26,822.79l-14.57,39.86,41.17-3.58-26.61-36.28ZM-487.43,871.15l-17.58,42.25,37.34-5.41-19.76-36.84ZM-445.05,805.79l36.8,37.87,11.51-43.84-48.31,5.97ZM-461.4,829.08l15.7,38.12,16.31-32.4-32.01-5.72ZM-431.27,764.07l-21.31,16.13,25.6,18.29-4.29-34.41ZM-491.93,924.41l24.2,32.05,18.41-46.71-42.61,14.66ZM-438.38,901l-20.6,49.26,52.51-1.26-31.91-48ZM-435.48,868.59l9.12,40.52,30.15-30.84-39.27-9.68ZM-423,843.99l-3.21,20.29,48.95-.38-45.74-19.91ZM-463.56,901.94l29.66-11.41-39.73-22.64,10.07,34.05ZM-390.33,794.7l-11.35-32.87-17.83,22.37,29.19,10.51ZM-386.8,736.05l-32.51-6.37,15.98,30.44,16.53-24.07ZM-461.85,962.84l-17.42,42.33,55.52,4.31-38.09-46.63ZM-492.83,973l-36.24,41.65,58.36,23.26-22.12-64.91ZM-486.25,1038.29l-8.78,21.32,35.7,6.38-26.92-27.7ZM-493.94,1067.46l-14.57,39.86,41.17-3.58-26.61-36.28ZM-498.11,1115.82l-17.58,42.25,37.34-5.41-19.76-36.84ZM-455.73,1050.46l36.8,37.87,11.51-43.84-48.31,5.97ZM-472.08,1073.75l15.7,38.12,16.31-32.4-32.01-5.72ZM-441.95,1008.75l-21.31,16.13,25.6,18.29-4.29-34.41ZM-406.41,1128.27l-17.42,42.33,55.52,4.31-38.09-46.63ZM-502.61,1169.08l24.2,32.05,18.41-46.71-42.61,14.66ZM-449.06,1145.67l-20.6,49.26,52.51-1.26-31.91-48ZM-446.16,1113.26l9.12,40.52,30.15-30.84-39.27-9.68ZM-433.68,1088.67l-3.21,20.29,48.95-.38-45.74-19.91ZM-474.24,1146.62l29.66-11.41-39.73-22.64,10.07,34.05ZM-401.01,1039.37l-11.35-32.87-17.83,22.37,29.19,10.51ZM-397.47,980.73l-32.51-6.37,15.98,30.44,16.53-24.07ZM12.54,1193.7l-33.63-30.46-23.63,50.69,57.27-20.22ZM35.89,1147.98l-45.39,9.45,32.5,29.44,12.88-38.89ZM70.49,1152.63l-30.1-5.5,2.28,57.55,27.82-52.05ZM73.03,1262.48l-41.97-18.27-5.42,55.42,47.39-37.15ZM63.5,1231.3l-40.92-37.07-24.42,57.88,65.34-20.81ZM-1.91,1236.58l-21.14-9.2-7.09,35.57,28.24-26.36ZM-30.93,1228.3l-39.56-15.36,2.75,41.24,36.81-25.87ZM-79.2,1223.17l-41.89-18.43,4.66,37.44,37.23-19.02ZM-14.7,1266.85l-38.59,36.04,43.6,12.39-5-48.42ZM-37.66,1250.03l-38.43,14.93,32.07,16.95,6.36-31.89ZM26.73,1281.45l-15.7-21.63-18.8,25.22,34.49-3.6ZM-132.35,1217.6l-32.53,23.55,46.33,19.35-13.81-42.9ZM-110.02,1271.61l-48.84-21.58.21,52.53,48.63-30.94ZM-77.67,1275.16l-40.69,8.31,30.23,30.76,10.47-39.07ZM-53.34,1288.13l-20.22-3.62-.6,48.95,20.82-45.33ZM-110.46,1246.42l10.81,29.88,23.43-39.26-34.24,9.39ZM-4.7,1321.78l33.09-10.69-22-18.28-11.09,28.97ZM-40.06,1187.15l-41.97-18.27,3.09,40.51,38.88-22.24ZM53.86,1326.49l7.02-32.38-30.75,15.37,23.74,17.01ZM-108.35,1196.41l7.02-32.38-30.75,15.37,23.74,17.01ZM-214.3,182.64l19.68,26.94,15.49-19.13-35.17-7.81ZM-257.24,228.11l30.72,16.18,4.17-31.1-34.9,14.92ZM-270.26,327.69l30.72,16.18,4.17-31.1-34.9,14.92ZM-32.82,354.5l30.72,16.18,4.17-31.1-34.9,14.92ZM-154.86,384.04l21.44,8.49,5.9-35.78-27.34,27.29ZM-388.48,340.38l21.44,8.49,5.9-35.78-27.34,27.29ZM-36.9,628.38l21.44,8.49,5.9-35.78-27.34,27.29ZM-257.6,682.72l31.72-24.62-46.95-17.79,15.23,42.41ZM-129.68,576.25l31.72-24.62-46.95-17.79,15.23,42.41ZM-149.6,691.15l31.72-24.62-46.95-17.79,15.23,42.41ZM-27.98,509.98l33.42-31.12-33.76-2.25.33,33.36ZM-30.9,584.85l20.14-49.45-52.5,1.75,32.36,47.7ZM-209.37,632.34l20.14-49.45-52.5,1.75,32.36,47.7ZM-96.77,630.81l20.14-49.45-52.5,1.75,32.36,47.7ZM-140.28,565.19l-32.51-6.37,15.98,30.44,16.53-24.07ZM-219.94,627.23l-32.51-6.37,15.98,30.44,16.53-24.07ZM-55.26,554.46l-32.51-6.37,15.98,30.44,16.53-24.07ZM44.31,598.89l-32.51-6.37,15.98,30.44,16.53-24.07ZM-29.98,804.17l-32.51-6.37,15.98,30.44,16.53-24.07ZM-169.45,589.1l-30.3,29.74,39.19,9.66-8.89-39.4ZM-360.18,493.36l-30.3,29.74,39.19,9.66-8.89-39.4ZM-380.09,694.8l-30.3,29.74,39.19,9.66-8.89-39.4ZM-65.32,583.18l15.7,38.12,16.31-32.4-32.01-5.72ZM-154.17,603.86l12.12,36.33,16.3-32.41-28.42-3.92ZM-222.34,639.1l15.7,38.12,16.31-32.4-32.01-5.72ZM-18.6,775.44l15.7,38.12,16.31-32.4-32.01-5.72ZM-258.34,835.95l15.7,38.12,16.31-32.4-32.01-5.72ZM-178.68,793.05l15.7,38.12,16.31-32.4-32.01-5.72ZM-276.72,1036.63l15.7,38.12,16.31-32.4-32.01-5.72ZM65.37,776.3l-8.78,21.32,35.7,6.38-26.92-27.7ZM79.53,811.77l15.7,38.12,16.31-32.4-32.01-5.72ZM90.51,736.04l-21.31,16.13,25.6,18.29-4.29-34.41ZM55.53,918.04l24.2,32.05,18.41-46.71-42.61,14.66ZM86.57,884.63l29.66-11.41-39.73-22.64,10.07,34.05ZM54.94,956.49l-36.24,41.65,58.36,23.26-22.12-64.91ZM54.69,1020.98l-8.78,21.32,35.7,6.38-26.92-27.7ZM46.99,1050.15l-14.57,39.86,41.17-3.58-26.61-36.28ZM42.83,1098.52l-17.58,42.25,37.34-5.41-19.76-36.84ZM83.68,1025.49l36.8,37.87,11.51-43.84-48.31,5.97ZM68.85,1056.45l15.7,38.12,16.31-32.4-32.01-5.72ZM87.49,962.33l-21.31,16.13,25.6,18.29-4.29-34.41ZM91.88,1128.36l-20.6,49.26,52.51-1.26-31.91-48ZM66.7,1129.31l29.66-11.41-39.73-22.64,10.07,34.05ZM-86.29,116.81l-8.78,21.32,35.7,6.38-26.92-27.7ZM-504.02,660.46l24.2,32.05,18.41-46.71-42.61,14.66ZM-502.55,415.69l-20.6,49.26,52.51-1.26-31.91-48ZM-503.21,543.02l29.66-11.41-39.73-22.64,10.07,34.05ZM-504.57,566.38l-17.42,42.33,55.52,4.31-38.09-46.63ZM-273.69,444.09l-8.78,21.32,35.7,6.38-26.92-27.7ZM-266.63,488.87l15.7,38.12,16.31-32.4-32.01-5.72ZM-483.14,689.65l-21.31,16.13,25.6,18.29-4.29-34.41ZM-382.92,832.12l29.66-11.41-39.73-22.64,10.07,34.05ZM-231.82,1039.79l-8.78,21.32,35.7,6.38-26.92-27.7ZM83.71,1242.84l-14.57,39.86,41.17-3.58-26.61-36.28ZM-206.46,1280.29l-16.1,30.16,29.73-5.72-13.63-24.44ZM-345.57,1053.81l15.7,38.12,16.31-32.4-32.01-5.72ZM-369.83,1106l-21.31,16.13,25.6,18.29-4.29-34.41ZM62.02,1203.52l24.2,32.05,18.41-46.71-42.61,14.66ZM-183.91,1176.28l-20.6,49.26,52.51-1.26-31.91-48ZM-154.7,1213.23l29.66-11.41-39.73-22.64,10.07,34.05ZM-477,1202.13l-17.42,42.33,55.52,4.31-38.09-46.63ZM-442.11,1256.71l-36.24,41.65,58.36,23.26-22.12-64.91ZM-424.59,1252.18l-8.78,21.32,35.7,6.38-26.92-27.7ZM-332.16,1273.81l-14.57,39.86,41.17-3.58-26.61-36.28ZM-265.85,1303.79l-17.58,42.25,37.34-5.41-19.76-36.84ZM-437.18,1221.58l36.8,37.87,11.51-43.84-48.31,5.97ZM-396.08,1288.53l15.7,38.12,16.31-32.4-32.01-5.72ZM-195.33,1090.06l-21.31,16.13,25.6,18.29-4.29-34.41ZM-200.66,1342.5l24.2,32.05,18.41-46.71-42.61,14.66ZM-487.95,1288.45l-20.6,49.26,52.51-1.26-31.91-48ZM-486.32,1282.5l29.66-11.41-39.73-22.64,10.07,34.05ZM-419.99,1386.21l34.63,29.33,21.93-51.45-56.56,22.12ZM-441.81,1432.69l45.05-10.96-33.47-28.35-11.58,39.3ZM-476.54,1429.19l30.27,4.49-4.2-57.44-26.07,52.95ZM-472.17,1350.33l42.13,35.68,22.48-58.66-64.62,22.98ZM-377.7,1350.18l40.05,14.04-4.12-41.12-35.92,27.09ZM-329.29,1353.7l42.48,17.02-5.9-37.27-36.57,20.25ZM-367.21,1391.01l42.55,16.86-4.44-40.38-38.12,23.52ZM-299.26,1379.48l-5.94,32.59,30.23-16.38-24.29-16.21ZM-317.35,1545.53l34.63,29.33,21.93-51.45-56.56,22.12ZM-339.17,1592l45.05-10.96-33.47-28.35-11.58,39.3ZM-373.9,1588.51l30.27,4.49-4.2-57.44-26.07,52.95ZM-380.1,1478.8l42.55,16.86,3.57-55.57-46.12,38.71ZM-369.54,1509.64l42.13,35.68,22.48-58.66-64.62,22.98ZM-304.34,1502.19l21.44,8.49,5.9-35.78-27.34,27.29ZM-275.06,1509.5l40.05,14.04-4.12-41.12-35.92,27.09ZM-226.65,1513.02l42.48,17.02-5.9-37.27-36.57,20.25ZM-292.57,1471.52l37.37-37.3-43.99-10.93,6.61,48.23ZM-269.06,1487.56l37.91-16.21-32.62-15.88-5.29,32.08ZM-334.46,1458.3l16.41,21.09,17.95-25.84-34.35,4.74ZM-215.42,1421.17l42.55,16.86,3.57-55.57-46.12,38.71ZM-165.65,1521.5l34.09-21.22-44.87-22.53,10.78,43.76ZM-182.9,1460.51l49.53,19.94-1.96-52.49-47.57,32.55ZM-229.9,1461.11l40.39-9.66-31.23-29.74-9.16,39.4ZM-254.66,1448.96l20.33,2.94-1.03-48.94-19.3,46ZM-196.18,1488.74l-11.8-29.5-22.11,40.02,33.91-10.52ZM-304.39,1416.95l-32.72,11.79,22.6,17.54,10.12-29.33ZM-264.57,1550.33l42.55,16.86-4.44-40.38-38.12,23.52ZM-363.07,1414.19l-5.94,32.59,30.23-16.38-24.29-16.21ZM-196.62,1538.8l-5.94,32.59,30.23-16.38-24.29-16.21ZM-75.98,1484.67l34.63,29.33,21.93-51.45-56.56,22.12ZM-97.8,1531.15l45.05-10.96-33.47-28.35-11.58,39.3ZM-137.9,1537.61l30.27,4.49-4.2-57.44-26.07,52.95ZM-138.73,1417.94l42.55,16.86,3.57-55.57-46.12,38.71ZM-128.17,1448.79l42.13,35.68,22.48-58.66-64.62,22.98ZM-62.97,1441.33l21.44,8.49,5.9-35.78-27.34,27.29ZM-33.69,1448.65l40.05,14.04-4.12-41.12-35.92,27.09ZM14.72,1452.17l42.48,17.02-5.9-37.27-36.57,20.25ZM-51.2,1410.66l37.37-37.3-43.99-10.93,6.61,48.23ZM-27.69,1426.7l37.91-16.21-32.62-15.88-5.29,32.08ZM-93.09,1397.44l16.41,21.09,17.95-25.84-34.35,4.74ZM25.95,1360.31l42.55,16.86,3.57-55.57-46.12,38.71ZM68.03,1455.96l31.72-24.62-46.95-17.79,15.23,42.41ZM43.91,1402.72l49.53,19.94-1.96-52.49-47.57,32.55ZM11.47,1400.26l40.39-9.66-31.23-29.74-9.16,39.4ZM-13.29,1388.1l20.33,2.94-1.03-48.94-19.3,46ZM45.19,1427.89l-11.8-29.5-22.11,40.02,33.91-10.52ZM-63.02,1356.09l-32.72,11.79,22.6,17.54,10.12-29.33ZM-23.2,1489.47l42.55,16.86-4.44-40.38-38.12,23.52ZM-121.7,1353.34l-5.94,32.59,30.23-16.38-24.29-16.21ZM44.75,1477.94l-5.94,32.59,30.23-16.38-24.29-16.21ZM-164.87,1609.78l42.55,16.86,3.57-55.57-46.12,38.71ZM-77.33,1602.49l37.37-37.3-43.99-10.93,6.61,48.23ZM-53.83,1618.54l37.91-16.21-32.62-15.88-5.29,32.08ZM-119.23,1589.27l16.41,21.09,17.95-25.84-34.35,4.74ZM-.19,1552.15l42.55,16.86,3.57-55.57L-.19,1552.15ZM17.78,1594.56l49.53,19.94-1.96-52.49-47.57,32.55ZM-14.67,1592.09l40.39-9.66-31.23-29.74-9.16,39.4ZM-39.43,1579.94l20.33,2.94-1.03-48.94-19.3,46ZM19.06,1619.72l-11.8-29.5-22.11,40.02,33.91-10.52ZM-89.15,1547.93l-32.72,11.79,22.6,17.54,10.12-29.33ZM-147.84,1545.17l-5.94,32.59,30.23-16.38-24.29-16.21ZM-237.29,1612.13l42.55,16.86,3.57-55.57-46.12,38.71ZM-276.53,1639.92l20.33,2.94-1.03-48.94-19.3,46ZM-453.55,1446.84l-17.42,42.33,55.52,4.31-38.09-46.63ZM-484.54,1457l-36.24,41.65,58.36,23.26-22.12-64.91ZM-477.95,1522.29l-8.78,21.32,35.7,6.38-26.92-27.7ZM-485.65,1551.47l-14.57,39.86,41.17-3.58-26.61-36.28ZM-447.43,1534.47l36.8,37.87,11.51-43.84-48.31,5.97ZM-463.79,1557.76l15.7,38.12,16.31-32.4-32.01-5.72ZM-433.66,1492.76l-21.31,16.13,25.6,18.29-4.29-34.41ZM-425.38,1572.67l-3.21,20.29,48.95-.38-45.74-19.91ZM-392.71,1523.38l-11.35-32.87-17.83,22.37,29.19,10.51ZM-389.18,1464.73l-32.51-6.37,15.98,30.44,16.53-24.07ZM-39.28,1357.06l21.44,8.49,5.9-35.78-27.34,27.29ZM-259.98,1411.4l31.72-24.62-46.95-17.79,15.23,42.41ZM-151.98,1419.83l31.72-24.62-46.95-17.79,15.23,42.41ZM-211.75,1361.02l20.14-49.45-52.5,1.75,32.36,47.7ZM-222.33,1355.91l-32.51-6.37,15.98,30.44,16.53-24.07ZM-32.37,1532.85l-32.51-6.37,15.98,30.44,16.53-24.07ZM-382.48,1423.48l-30.3,29.74,39.19,9.66-8.89-39.4ZM-156.55,1332.54l12.12,36.33,16.3-32.41-28.42-3.92ZM-224.72,1367.78l15.7,38.12,16.31-32.4-32.01-5.72ZM-20.98,1504.12l15.7,38.12,16.31-32.4-32.01-5.72ZM-260.72,1564.63l15.7,38.12,16.31-32.4-32.01-5.72ZM-181.07,1521.73l15.7,38.12,16.31-32.4-32.01-5.72ZM62.99,1504.98l-8.78,21.32,35.7,6.38-26.92-27.7ZM77.15,1540.45l15.7,38.12,16.31-32.4-32.01-5.72ZM88.13,1464.72l-21.31,16.13,25.6,18.29-4.29-34.41ZM84.19,1613.31l29.66-11.41-39.73-22.64,10.07,34.05ZM-506.4,1389.14l24.2,32.05,18.41-46.71-42.61,14.66ZM-485.53,1418.33l-21.31,16.13,25.6,18.29-4.29-34.41ZM-385.3,1560.8l29.66-11.41-39.73-22.64,10.07,34.05ZM-510.37,1671.91l34.63,29.33,21.93-51.45-56.56,22.12ZM-468.08,1635.88l40.05,14.04-4.12-41.12-35.92,27.09ZM-419.67,1639.41l42.48,17.02-5.9-37.27-36.57,20.25ZM-457.59,1676.71l42.55,16.86-4.44-40.38-38.12,23.52ZM-389.64,1665.18l-5.94,32.59,30.23-16.38-24.29-16.21ZM-305.81,1706.87l42.55,16.86,3.57-55.57-46.12,38.71ZM-345.04,1734.66l20.33,2.94-1.03-48.94-19.3,46ZM-361.07,1695.76l-32.72,11.79,22.6,17.54,10.12-29.33ZM-434.61,1692.68l-5.94,32.59,30.23-16.38-24.29-16.21ZM-178.23,1608.5l-5.94,32.59,30.23-16.38-24.29-16.21ZM-225.53,1664.99l-16.53,42.68,55.59,3.14-39.06-45.82ZM-7.91,1637.98l42.13,35.68,22.48-58.66-64.62,22.98ZM-150.29,1715.55l21.44,8.49,5.9-35.78-27.34,27.29ZM50.72,1639.83l42.48,17.02-5.9-37.27-36.57,20.25ZM-141.58,1696.36l37.37-37.3-43.99-10.93,6.61,48.23ZM-118.08,1712.4l37.91-16.21-32.62-15.88-5.29,32.08ZM-183.48,1683.14l16.41,21.09,17.95-25.84-34.35,4.74ZM-64.44,1646.01l42.55,16.86,3.57-55.57-46.12,38.71ZM-46.47,1688.42l49.53,19.94-1.96-52.49-47.57,32.55ZM-78.92,1685.96l40.39-9.66-31.23-29.74-9.16,39.4ZM-103.67,1673.8l20.33,2.94-1.03-48.94-19.3,46ZM-45.19,1713.59l-11.8-29.5-22.11,40.02,33.91-10.52ZM-153.4,1641.79l-32.72,11.79,22.6,17.54,10.12-29.33ZM-212.09,1639.04l-5.94,32.59,30.23-16.38-24.29-16.21ZM81.52,1661.77l-5.94,32.59,30.23-16.38-24.29-16.21ZM-349.05,1629.85l-11.35-32.87-17.83,22.37,29.19,10.51ZM-129.67,1642.76l21.44,8.49,5.9-35.78-27.34,27.29ZM-350.36,1697.1l31.72-24.62-46.95-17.79,15.23,42.41ZM-242.36,1705.53l31.72-24.62-46.95-17.79,15.23,42.41ZM-302.13,1646.72l20.14-49.45-52.5,1.75,32.36,47.7ZM-312.71,1641.61l-32.51-6.37,15.98,30.44,16.53-24.07ZM-54.44,1612.66l-32.51-6.37,15.98,30.44,16.53-24.07ZM-246.94,1618.25l12.12,36.33,16.3-32.41-28.42-3.92ZM-315.11,1653.48l15.7,38.12,16.31-32.4-32.01-5.72ZM18.9,1674.22l-8.78,21.32,35.7,6.38-26.92-27.7ZM65.15,1653.15l-21.31,16.13,25.6,18.29-4.29-34.41ZM-500.27,1610.5l24.2,32.05,18.41-46.71-42.61,14.66ZM-166.89,1565.4l-21.31,16.13,25.6,18.29-4.29-34.41ZM-417.98,1628.76l29.4-11.96-35.19-12.84,5.79,24.8ZM-102.7,1303.83l-18.46,41.89,40.52-2.91-22.06-38.98ZM-157.71,1303.62l-32.35-7.16,15.23,30.82,17.12-23.66ZM-55.33,1311.89l-9.3,21.1,35.53,7.25-26.24-28.35ZM-394.63,1328.61l-18.62,41.8,37.47-4.49-18.85-37.31ZM3.91,1320.89l14.76,38.5,17.1-31.99-31.86-6.5ZM87.72,1286.28l-21.7,15.6,25.14,18.91-3.44-34.51ZM-453.63,1195.81l-3.71,20.21,48.94.82-45.24-21.02ZM-384.54,1286.45l29.93-10.68-39.16-23.61,9.23,34.28ZM-167.76,1260.69l-10.54-33.14-18.38,21.92,28.92,11.22ZM-112.24,1307.85l-32.35-7.16,15.23,30.82,17.12-23.66ZM-264.11,858.67l-20.98-9.58-7.72,35.44,28.7-25.86ZM-155.65,839.76l-20.16-3.98-1.47,48.93,21.62-44.95ZM-385.62,1210.19l7.59-32.25-31.02,14.82,23.43,17.43Z"/>
  <path class="cls-1" d="M714.47,41.58l29.86,39.57,6.5-35.82-36.36-3.74ZM847.93-8.99l-74.83,41.8-11.32-45.82,86.15,4.02ZM570.85,316.74l27-40.71,25.36,33.64-52.36,7.07ZM519.91,268l69.3,9.88-30.09,42.12-39.21-52ZM501.35,336.25l35.93-24.79,6.07,40.2-41.99-15.41ZM593.33,353.03l-41.37-24.55,34.29-6.03,7.09,30.58ZM807.13,33.6l-20.55,31.28-19.83-27.57,40.37-3.71ZM759.44-14.41l-3.46,55.57-41.29-16.86,44.75-38.71ZM562.08,225.17l4.3,40.38-41.29-16.86,36.98-23.52ZM491.77,186.09l37.56,22.78-40.86,17.68,3.3-40.46ZM601.89,116.77l-21.28,51.45-33.6-29.33,54.88-22.12ZM564.66,208.02l48.87,18.23-33.76,27.12-15.11-45.35ZM609.16,151.97l-1.32,62.69-50.86-20.77,52.18-41.92ZM537.08,146.06l32.47,28.35-43.71,10.96,11.23-39.3ZM517.44,128.91l4.07,57.44-29.37-4.49,25.29-52.95ZM525.22,228.93l21.45-40.02,11.45,29.5-32.9,10.52ZM530.88,33.45l-3.46,55.57-41.29-16.86,44.75-38.71ZM559.08,80.02l-21.81,58.66-40.88-35.68,62.69-22.98ZM586.17,68.26l-5.73,35.78-20.8-8.49,26.53-27.29ZM622.9,75.77l4,41.12-38.86-14.04,34.86-27.09ZM670.5,86.13l5.73,37.27-41.21-17.02,35.49-20.25ZM564.64,16.64l42.68,10.93-36.26,37.3-6.42-48.23ZM599,48.83l31.65,15.88-36.78,16.21,5.14-32.08ZM563.75,46.91l-17.41,25.84-15.92-21.09,33.33-4.74ZM690.66-24.18l-3.46,55.57-41.29-16.86,44.75-38.71ZM671.97,67.76l45.55,17.79-30.78,24.62-14.77-42.41ZM709.5,24.39l1.9,52.49-48.06-19.94,46.15-32.55ZM640.75,15.07l30.3,29.74-39.19,9.66,8.89-39.4ZM626.56-3.68l1,48.94-19.73-2.94,18.72-46ZM631.68,92.62l21.45-40.02,11.45,29.5-32.9,10.52ZM475.3,307.69l35.3-38.13,23.55,35.52-58.84,2.61ZM549.78,39.63l-21.93-17.54,31.74-11.79-9.82,29.33ZM786.82,74.76l-28.34,11.47-.77-34.72,29.11,23.25ZM635.21,120.16l4.3,40.38-41.29-16.86,36.98-23.52ZM526.28,251.1l-29.33,16.38,5.76-32.59,23.57,16.21ZM526.22,23.76l-29.33,16.38,5.76-32.59,23.57,16.21ZM893.87,47.91l-30.78,39.57-6.7-35.82,37.47-3.74ZM987.93,316.01l26.14-33.64,27.83,40.71-53.97-7.07ZM1054,326.34l-31.01-42.12,71.42-9.88-40.41,52ZM1070.48,359.69l6.64-41.98,38.98,25.84-45.62,16.14ZM1026.04,328.79l35.34,6.03-42.64,24.55,7.3-30.58ZM844.81,40.87l-33.31,8.28,3.56-37.6,29.75,29.33ZM893.65,30.63l-42.55,16.86-3.57-55.57,46.12,38.71ZM1089.06,255.03l-42.55,16.86,4.44-40.38,38.12,23.52ZM1114.43,240.54l-32.4-32.18,44.43-6.59-12.03,38.78ZM1066.47,145.22l-34.63,29.33-21.93-51.45,56.56,22.12ZM1032.71,259.71l-34.79-27.12,50.36-18.23-15.57,45.35ZM1056.2,200.23l-52.42,20.77-1.36-62.69,53.78,41.92ZM1088.29,191.7l-45.05-10.96,33.47-28.35,11.58,39.3ZM1123.02,188.2l-30.27,4.49,4.2-57.44,26.07,52.95ZM1055.02,224.74l11.8-29.5,22.11,40.02-33.91-10.52ZM1129.22,78.49l-42.55,16.86-3.57-55.57,46.12,38.71ZM1118.65,109.34l-42.13,35.68-22.48-58.66,64.62,22.98ZM1053.46,101.88l-21.44,8.49-5.9-35.78,27.34,27.29ZM1024.18,109.2l-40.05,14.04,4.12-41.12,35.92,27.09ZM975.77,112.72l-42.48,17.02,5.9-37.27,36.57,20.25ZM1041.68,71.21l-37.37-37.3,43.99-10.93-6.61,48.23ZM1018.18,87.25l-37.91-16.21,32.62-15.88,5.29,32.08ZM1083.58,57.99l-16.41,21.09-17.95-25.84,34.35,4.74ZM964.54,20.86l-42.55,16.86-3.57-55.57,46.12,38.71ZM922.45,116.51l-31.72-24.62,46.95-17.79-15.23,42.41ZM946.57,63.27l-49.53,19.94,1.96-52.49,47.57,32.55ZM979.02,60.81l-40.39-9.66,31.23-29.74,9.16,39.4ZM1003.78,48.65l-20.33,2.94,1.03-48.94,19.3,46ZM945.29,88.44l11.8-29.5,22.11,40.02-33.91-10.52ZM1079.74,311.41l24.27-35.52,36.38,38.13-60.65-2.61ZM1053.5,16.64l32.72,11.79-22.6,17.54-10.12-29.33ZM851.9,66.45l-30.72,16.18-4.17-31.1,34.9,14.92ZM1013.68,150.02l-42.55,16.86,4.44-40.38,38.12,23.52ZM1116.48,245.04l5.94,32.59-30.23-16.38,24.29-16.21ZM1112.19,13.89l5.94,32.59-30.23-16.38,24.29-16.21ZM785.12,330.78l-34.63,29.33-21.93-51.45,56.56,22.12ZM806.94,377.25l-45.05-10.96,33.47-28.35,11.58,39.3ZM841.67,373.76l-30.27,4.49,4.2-57.44,26.07,52.95ZM847.87,264.05l-42.55,16.86-3.57-55.57,46.12,38.71ZM837.3,294.89l-42.13,35.68-22.48-58.66,64.62,22.98ZM772.11,287.44l-21.44,8.49-5.9-35.78,27.34,27.29ZM742.83,294.75l-40.05,14.04,4.12-41.12,35.92,27.09ZM694.42,298.27l-42.48,17.02,5.9-37.27,36.57,20.25ZM760.34,256.76l-37.37-37.3,43.99-10.93-6.61,48.23ZM736.83,272.81l-37.91-16.21,32.62-15.88,5.29,32.08ZM802.23,243.54l-16.41,21.09-17.95-25.84,34.35,4.74ZM683.19,206.42l-42.55,16.86-3.57-55.57,46.12,38.71ZM641.11,302.07l-31.72-24.62,46.95-17.79-15.23,42.41ZM665.22,248.83l-49.53,19.94,1.96-52.49,47.57,32.55ZM697.67,246.36l-40.39-9.66,31.23-29.74,9.16,39.4ZM722.29,235.03l-18.7,2.36.5-42.44,18.2,40.08ZM663.94,273.99l11.8-29.5,22.11,40.02-33.91-10.52ZM772.15,202.2l32.72,11.79-22.6,17.54-10.12-29.33ZM732.33,335.57l-42.55,16.86,4.44-40.38,38.12,23.52ZM664.38,324.04l5.94,32.59-30.23-16.38,24.29-16.21ZM888.39,252.73l-30.27,4.49,4.2-57.44,26.07,52.95ZM894.59,143.03l-42.55,16.86-3.57-55.57,46.12,38.71ZM818.83,166.42l-21.44,8.49-5.9-35.78,27.34,27.29ZM789.55,173.73l-40.05,14.04,4.12-41.12,35.92,27.09ZM741.14,177.25l-42.48,17.02,5.9-37.27,36.57,20.25ZM807.06,135.74l-37.37-37.3,43.99-10.93-6.61,48.23ZM783.55,151.78l-37.91-16.21,32.62-15.88,5.29,32.08ZM848.95,122.52l-16.41,21.09-17.95-25.84,34.35,4.74ZM687.83,181.05l-31.72-24.62,46.95-17.79-15.23,42.41ZM744.39,125.34l-40.39-9.66,31.23-29.74,9.16,39.4ZM769.15,113.19l-20.33,2.94,1.03-48.94,19.3,46ZM710.67,152.97l11.8-29.5,22.11,40.02-33.91-10.52ZM815.81,85l32.72,11.79-22.6,17.54-10.12-29.33ZM885.99,91.44l5.94,32.59-30.23-16.38,24.29-16.21ZM988.1,273.33l-34.63,29.33-21.93-51.45,56.56,22.12ZM1025.51,268.75l-42.01-1.31-1.86-35.03,43.87,36.34ZM975.09,229.99l-21.44,8.49-5.9-35.78,27.34,27.29ZM945.81,237.3l-40.05,14.04,4.12-41.12,35.92,27.09ZM960.25,192.42l-37.37-37.3,43.99-10.93-6.61,48.23ZM939.81,215.36l-37.91-16.21,32.62-15.88,5.29,32.08ZM993.23,174.47l8.31,25.4-31.46.43,23.14-25.83ZM868.2,191.38l-49.53,19.94,1.96-52.49,47.57,32.55ZM900.65,188.91l-40.39-9.66,31.23-29.74,9.16,39.4ZM925.41,176.76l-20.33,2.94,1.03-48.94,19.3,46ZM879.93,219.28l10.54-25.09,11.4,30.7-21.95-5.61ZM935.31,278.13l-42.55,16.86,4.44-40.38,38.12,23.52ZM867.36,266.6l5.94,32.59-30.23-16.38,24.29-16.21ZM1024.1,470.95l-34.63,29.33-21.93-51.45,56.56,22.12ZM1045.92,517.42l-45.05-10.96,33.47-28.35,11.58,39.3ZM1080.65,513.93l-30.27,4.49,4.2-57.44,26.07,52.95ZM1086.85,404.22l-42.55,16.86-3.57-55.57,46.12,38.71ZM1076.28,435.06l-42.13,35.68-22.48-58.66,64.62,22.98ZM1011.09,427.61l-21.44,8.49-5.9-35.78,27.34,27.29ZM981.81,434.92l-40.05,14.04,4.12-41.12,35.92,27.09ZM933.4,438.44l-42.48,17.02,5.9-37.27,36.57,20.25ZM999.31,396.93l-37.37-37.3,43.99-10.93-6.61,48.23ZM975.81,412.98l-37.91-16.21,32.62-15.88,5.29,32.08ZM1041.21,383.71l-16.41,21.09-17.95-25.84,34.35,4.74ZM922.17,346.59l-42.55,16.86-3.57-55.57,46.12,38.71ZM880.08,442.24l-31.72-24.62,46.95-17.79-15.23,42.41ZM904.2,389l-49.53,19.94,1.96-52.49,47.57,32.55ZM936.65,386.53l-40.39-9.66,31.23-29.74,9.16,39.4ZM961.41,374.38l-20.33,2.94,1.03-48.94,19.3,46ZM902.92,414.16l11.8-29.5,22.11,40.02-33.91-10.52ZM910.03,297.94l32.72,11.79-22.6,17.54-10.12-29.33ZM971.31,475.74l-42.55,16.86,4.44-40.38,38.12,23.52ZM1069.82,339.61l5.94,32.59-30.23-16.38,24.29-16.21ZM903.36,464.21l5.94,32.59-30.23-16.38,24.29-16.21ZM795.84,513.84l-34.63,29.33-21.93-51.45,56.56,22.12ZM817.66,560.32l-45.05-10.96,33.47-28.35,11.58,39.3ZM852.39,556.82l-30.27,4.49,4.2-57.44,26.07,52.95ZM858.59,447.11l-42.55,16.86-3.57-55.57,46.12,38.71ZM848.03,477.96l-42.13,35.68-22.48-58.66,64.62,22.98ZM782.83,470.5l-21.44,8.49-5.9-35.78,27.34,27.29ZM753.55,477.81l-40.05,14.04,4.12-41.12,35.92,27.09ZM705.14,481.33l-42.48,17.02,5.9-37.27,36.57,20.25ZM771.06,439.83l-37.37-37.3,43.99-10.93-6.61,48.23ZM747.55,455.87l-37.91-16.21,32.62-15.88,5.29,32.08ZM812.95,426.61l-16.41,21.09-17.95-25.84,34.35,4.74ZM693.91,389.48l-42.55,16.86-3.57-55.57,46.12,38.71ZM651.83,485.13l-31.72-24.62,46.95-17.79-15.23,42.41ZM675.95,431.89l-49.53,19.94,1.96-52.49,47.57,32.55ZM708.39,429.42l-40.39-9.66,31.23-29.74,9.16,39.4ZM733.15,417.27l-20.33,2.94,1.03-48.94,19.3,46ZM674.67,457.05l11.8-29.5,22.11,40.02-33.91-10.52ZM782.88,385.26l32.72,11.79-22.6,17.54-10.12-29.33ZM743.06,518.64l-42.55,16.86,4.44-40.38,38.12,23.52ZM841.56,382.5l5.94,32.59-30.23-16.38,24.29-16.21ZM675.11,507.11l5.94,32.59-30.23-16.38,24.29-16.21ZM539.65,592.87l-17.03-42.49,55.55-3.79-38.52,46.28ZM508.76,582.42l-35.85-41.99,58.57-22.72-22.72,64.71ZM515.96,517.2l-8.58-21.41,35.76-6.04-27.18,27.45ZM508.53,487.95l-14.19-39.99,41.14,3.96-26.94,36.03ZM504.81,439.55l-17.19-42.41,37.29,5.75-20.1,36.66ZM546.58,505.3l37.15-37.52,11.1,43.94-48.26-6.42ZM530.45,481.86l16.05-37.98,16.01,32.55-32.06,5.42ZM559.97,547.14l-21.16-16.32,25.76-18.05-4.61,34.37ZM596.62,427.96l-17.03-42.49,55.55-3.79-38.52,46.28ZM500.8,386.25l24.5-31.82,17.98,46.88-42.47-15.06ZM554.14,410.16l-20.14-49.45,52.5,1.75-32.36,47.7ZM556.74,442.6l9.5-40.43,29.86,31.11-39.36,9.32ZM568.99,467.3l-3.02-20.32,48.94.84-45.92,19.48ZM528.97,408.98l29.55,11.68-39.93,22.27,10.39-33.95ZM601.2,516.9l-11.66,32.76-17.63-22.53,29.28-10.23ZM604.19,575.58l-32.57,6.07,16.26-30.29,16.31,24.22ZM1017.97,656.31l-34.63,29.33-21.93-51.45,56.56,22.12ZM1039.79,702.78l-45.05-10.96,33.47-28.35,11.58,39.3ZM1074.52,699.29l-30.27,4.49,4.2-57.44,26.07,52.95ZM1080.72,589.58l-42.55,16.86-3.57-55.57,46.12,38.71ZM1070.15,620.43l-42.13,35.68-22.48-58.66,64.62,22.98ZM1004.96,612.97l-21.44,8.49-5.9-35.78,27.34,27.29ZM975.68,620.28l-40.05,14.04,4.12-41.12,35.92,27.09ZM927.27,623.8l-42.48,17.02,5.9-37.27,36.57,20.25ZM993.19,582.3l-37.37-37.3,43.99-10.93-6.61,48.23ZM969.68,598.34l-37.91-16.21,32.62-15.88,5.29,32.08ZM1035.08,569.08l-16.41,21.09-17.95-25.84,34.35,4.74ZM916.04,531.95l-42.55,16.86-3.57-55.57,46.12,38.71ZM873.96,627.6l-31.72-24.62,46.95-17.79-15.23,42.41ZM898.07,574.36l-49.53,19.94,1.96-52.49,47.57,32.55ZM930.52,571.89l-40.39-9.66,31.23-29.74,9.16,39.4ZM955.28,559.74l-20.33,2.94,1.03-48.94,19.3,46ZM896.79,599.52l11.8-29.5,22.11,40.02-33.91-10.52ZM1005,527.73l32.72,11.79-22.6,17.54-10.12-29.33ZM965.19,661.11l-42.55,16.86,4.44-40.38,38.12,23.52ZM1063.69,524.97l5.94,32.59-30.23-16.38,24.29-16.21ZM897.24,649.58l5.94,32.59-30.23-16.38,24.29-16.21ZM915.33,815.63l-34.63,29.33-21.93-51.45,56.56,22.12ZM937.15,862.1l-45.05-10.96,33.47-28.35,11.58,39.3ZM971.88,858.61l-30.27,4.49,4.2-57.44,26.07,52.95ZM978.08,748.9l-42.55,16.86-3.57-55.57,46.12,38.71ZM967.51,779.74l-42.13,35.68-22.48-58.66,64.62,22.98ZM902.32,772.29l-21.44,8.49-5.9-35.78,27.34,27.29ZM873.04,779.6l-40.05,14.04,4.12-41.12,35.92,27.09ZM824.63,783.12l-42.48,17.02,5.9-37.27,36.57,20.25ZM890.55,741.62l-37.37-37.3,43.99-10.93-6.61,48.23ZM867.04,757.66l-37.91-16.21,32.62-15.88,5.29,32.08ZM932.44,728.39l-16.41,21.09-17.95-25.84,34.35,4.74ZM813.4,691.27l-42.55,16.86-3.57-55.57,46.12,38.71ZM771.32,786.92l-31.72-24.62,46.95-17.79-15.23,42.41ZM795.44,733.68l-49.53,19.94,1.96-52.49,47.57,32.55ZM827.88,731.21l-40.39-9.66,31.23-29.74,9.16,39.4ZM852.64,719.06l-20.33,2.94,1.03-48.94,19.3,46ZM794.16,758.84l11.8-29.5,22.11,40.02-33.91-10.52ZM902.37,687.05l32.72,11.79-22.6,17.54-10.12-29.33ZM862.55,820.42l-42.55,16.86,4.44-40.38,38.12,23.52ZM961.05,684.29l5.94,32.59-30.23-16.38,24.29-16.21ZM794.6,808.9l5.94,32.59-30.23-16.38,24.29-16.21ZM673.96,754.77l-34.63,29.33-21.93-51.45,56.56,22.12ZM695.78,801.25l-45.05-10.96,33.47-28.35,11.58,39.3ZM730.51,797.75l-30.27,4.49,4.2-57.44,26.07,52.95ZM736.71,688.04l-42.55,16.86-3.57-55.57,46.12,38.71ZM726.14,718.89l-42.13,35.68-22.48-58.66,64.62,22.98ZM660.95,711.43l-21.44,8.49-5.9-35.78,27.34,27.29ZM631.67,718.74l-40.05,14.04,4.12-41.12,35.92,27.09ZM583.26,722.27l-42.48,17.02,5.9-37.27,36.57,20.25ZM649.18,680.76l-37.37-37.3,43.99-10.93-6.61,48.23ZM625.67,696.8l-37.91-16.21,32.62-15.88,5.29,32.08ZM691.07,667.54l-16.41,21.09-17.95-25.84,34.35,4.74ZM572.03,630.41l-42.55,16.86-3.57-55.57,46.12,38.71ZM529.95,726.06l-31.72-24.62,46.95-17.79-15.23,42.41ZM554.07,672.82l-49.53,19.94,1.96-52.49,47.57,32.55ZM586.51,670.35l-40.39-9.66,31.23-29.74,9.16,39.4ZM611.27,658.2l-20.33,2.94,1.03-48.94,19.3,46ZM552.79,697.99l11.8-29.5,22.11,40.02-33.91-10.52ZM661,626.19l32.72,11.79-22.6,17.54-10.12-29.33ZM621.18,759.57l-42.55,16.86,4.44-40.38,38.12,23.52ZM719.68,623.44l5.94,32.59-30.23-16.38,24.29-16.21ZM553.23,748.04l5.94,32.59-30.23-16.38,24.29-16.21ZM700.1,946.61l-34.63,29.33-21.93-51.45,56.56,22.12ZM721.92,993.08l-45.05-10.96,33.47-28.35,11.58,39.3ZM756.65,989.59l-30.27,4.49,4.2-57.44,26.07,52.95ZM762.85,879.88l-42.55,16.86-3.57-55.57,46.12,38.71ZM752.28,910.72l-42.13,35.68-22.48-58.66,64.62,22.98ZM687.09,903.27l-21.44,8.49-5.9-35.78,27.34,27.29ZM657.81,910.58l-40.05,14.04,4.12-41.12,35.92,27.09ZM609.4,914.1l-42.48,17.02,5.9-37.27,36.57,20.25ZM675.31,872.59l-37.37-37.3,43.99-10.93-6.61,48.23ZM651.81,888.64l-37.91-16.21,32.62-15.88,5.29,32.08ZM717.21,859.37l-16.41,21.09-17.95-25.84,34.35,4.74ZM598.17,822.25l-42.55,16.86-3.57-55.57,46.12,38.71ZM556.08,917.9l-31.72-24.62,46.95-17.79-15.23,42.41ZM580.2,864.66l-49.53,19.94,1.96-52.49,47.57,32.55ZM612.65,862.19l-40.39-9.66,31.23-29.74,9.16,39.4ZM637.41,850.04l-20.33,2.94,1.03-48.94,19.3,46ZM578.92,889.82l11.8-29.5,22.11,40.02-33.91-10.52ZM687.13,818.03l32.72,11.79-22.6,17.54-10.12-29.33ZM647.31,951.4l-42.55,16.86,4.44-40.38,38.12,23.52ZM745.82,815.27l5.94,32.59-30.23-16.38,24.29-16.21ZM579.36,939.87l5.94,32.59-30.23-16.38,24.29-16.21ZM937.2,1006.59l-34.63,29.33-21.93-51.45,56.56,22.12ZM959.02,1053.06l-45.05-10.96,33.47-28.35,11.58,39.3ZM993.75,1049.57l-30.27,4.49,4.2-57.44,26.07,52.95ZM999.95,939.86l-42.55,16.86-3.57-55.57,46.12,38.71ZM989.38,970.7l-42.13,35.68-22.48-58.66,64.62,22.98ZM924.19,963.25l-21.44,8.49-5.9-35.78,27.34,27.29ZM894.91,970.56l-40.05,14.04,4.12-41.12,35.92,27.09ZM846.5,974.08l-42.48,17.02,5.9-37.27,36.57,20.25ZM912.42,932.57l-37.37-37.3,43.99-10.93-6.61,48.23ZM888.91,948.62l-37.91-16.21,32.62-15.88,5.29,32.08ZM954.31,919.35l-16.41,21.09-17.95-25.84,34.35,4.74ZM835.27,882.23l-42.55,16.86-3.57-55.57,46.12,38.71ZM793.19,977.88l-31.72-24.62,46.95-17.79-15.23,42.41ZM817.31,924.64l-49.53,19.94,1.96-52.49,47.57,32.55ZM849.75,922.17l-40.39-9.66,31.23-29.74,9.16,39.4ZM874.51,910.02l-20.33,2.94,1.03-48.94,19.3,46ZM816.03,949.8l11.8-29.5,22.11,40.02-33.91-10.52ZM924.24,878.01l32.72,11.79-22.6,17.54-10.12-29.33ZM884.42,1011.38l-42.55,16.86,4.44-40.38,38.12,23.52ZM982.92,875.25l5.94,32.59-30.23-16.38,24.29-16.21ZM816.47,999.85l5.94,32.59-30.23-16.38,24.29-16.21ZM739.16,1124.31l-34.63,29.33-21.93-51.45,56.56,22.12ZM760.98,1170.78l-45.05-10.96,33.47-28.35,11.58,39.3ZM795.71,1167.29l-30.27,4.49,4.2-57.44,26.07,52.95ZM801.91,1057.58l-42.55,16.86-3.57-55.57,46.12,38.71ZM791.34,1088.43l-42.13,35.68-22.48-58.66,64.62,22.98ZM726.15,1080.97l-21.44,8.49-5.9-35.78,27.34,27.29ZM696.87,1088.28l-40.05,14.04,4.12-41.12,35.92,27.09ZM648.46,1091.8l-42.48,17.02,5.9-37.27,36.57,20.25ZM714.38,1050.3l-37.37-37.3,43.99-10.93-6.61,48.23ZM690.87,1066.34l-37.91-16.21,32.62-15.88,5.29,32.08ZM756.27,1037.08l-16.41,21.09-17.95-25.84,34.35,4.74ZM637.23,999.95l-42.55,16.86-3.57-55.57,46.12,38.71ZM595.15,1095.6l-31.72-24.62,46.95-17.79-15.23,42.41ZM619.27,1042.36l-49.53,19.94,1.96-52.49,47.57,32.55ZM651.71,1039.89l-40.39-9.66,31.23-29.74,9.16,39.4ZM676.47,1027.74l-20.33,2.94,1.03-48.94,19.3,46ZM617.99,1067.52l11.8-29.5,22.11,40.02-33.91-10.52ZM726.2,995.73l32.72,11.79-22.6,17.54-10.12-29.33ZM686.38,1129.11l-42.55,16.86,4.44-40.38,38.12,23.52ZM784.88,992.97l5.94,32.59-30.23-16.38,24.29-16.21ZM618.43,1117.58l5.94,32.59-30.23-16.38,24.29-16.21ZM944.22,1124.91l29.79,34.23-51.15,22.61,21.37-56.85ZM986.45,1067.79l4.89,30.2-57.49-3.43,52.6-26.77ZM876.67,1063.05l17.42,42.33-55.52,4.31,38.09-46.63ZM907.65,1073.21l36.24,41.65-58.36,23.26,22.12-64.91ZM901.06,1138.5l8.78,21.32-35.7,6.38,26.92-27.7ZM908.76,1167.68l14.57,39.86-41.17-3.58,26.61-36.28ZM912.93,1216.04l17.58,42.25-37.34-5.41,19.76-36.84ZM870.55,1150.68l-36.8,37.87-11.51-43.84,48.31,5.97ZM886.9,1173.97l-15.7,38.12-16.31-32.4,32.01-5.72ZM856.77,1108.96l21.31,16.13-25.6,18.29,4.29-34.41ZM821.23,1228.48l17.42,42.33-55.52,4.31,38.09-46.63ZM917.43,1269.29l-24.2,32.05-18.41-46.71,42.61,14.66ZM863.87,1245.89l20.6,49.26-52.51-1.26,31.91-48ZM860.98,1213.47l-9.12,40.52-30.15-30.84,39.27-9.68ZM848.5,1188.88l3.21,20.29-48.95-.38,45.74-19.91ZM889.05,1246.83l-29.66-11.41,39.73-22.64-10.07,34.05ZM815.83,1139.59l11.35-32.87,17.83,22.37-29.19,10.51ZM949.72,1177.63l17.42,42.33-40.44-3.9,23.01-38.43ZM812.29,1080.94l32.51-6.37-15.98,30.44-16.53-24.07ZM939.1,1245.73l32.51-6.37-15.98,30.44-16.53-24.07ZM1051.53,716.94l17.42,42.33-55.52,4.31,38.09-46.63ZM1082.52,727.1l36.24,41.65-58.36,23.26,22.12-64.91ZM1075.93,792.39l8.78,21.32-35.7,6.38,26.92-27.7ZM1083.63,821.57l14.57,39.86-41.17-3.58,26.61-36.28ZM1087.79,869.93l17.58,42.25-37.34-5.41,19.76-36.84ZM1045.41,804.57l-36.8,37.87-11.51-43.84,48.31,5.97ZM1061.77,827.86l-15.7,38.12-16.31-32.4,32.01-5.72ZM1031.64,762.85l21.31,16.13-25.6,18.29,4.29-34.41ZM1092.3,923.19l-24.2,32.05-18.41-46.71,42.61,14.66ZM1038.74,899.78l20.6,49.26-52.51-1.26,31.91-48ZM1035.84,867.37l-9.12,40.52-30.15-30.84,39.27-9.68ZM1023.36,842.77l3.21,20.29-48.95-.38,45.74-19.91ZM1063.92,900.72l-29.66-11.41,39.73-22.64-10.07,34.05ZM990.69,793.48l11.35-32.87,17.83,22.37-29.19,10.51ZM987.16,734.83l32.51-6.37-15.98,30.44-16.53-24.07ZM1062.21,961.62l17.42,42.33-55.52,4.31,38.09-46.63ZM1093.2,971.78l36.24,41.65-58.36,23.26,22.12-64.91ZM1086.61,1037.07l8.78,21.32-35.7,6.38,26.92-27.7ZM1094.31,1066.24l14.57,39.86-41.17-3.58,26.61-36.28ZM1098.47,1114.6l17.58,42.25-37.34-5.41,19.76-36.84ZM1056.09,1049.24l-36.8,37.87-11.51-43.84,48.31,5.97ZM1072.45,1072.54l-15.7,38.12-16.31-32.4,32.01-5.72ZM1042.32,1007.53l21.31,16.13-25.6,18.29,4.29-34.41ZM1006.78,1127.05l17.42,42.33-55.52,4.31,38.09-46.63ZM1102.98,1167.86l-24.2,32.05-18.41-46.71,42.61,14.66ZM1049.42,1144.45l20.6,49.26-52.51-1.26,31.91-48ZM1046.52,1112.04l-9.12,40.52-30.15-30.84,39.27-9.68ZM1034.04,1087.45l3.21,20.29-48.95-.38,45.74-19.91ZM1074.6,1145.4l-29.66-11.41,39.73-22.64-10.07,34.05ZM1001.37,1038.15l11.35-32.87,17.83,22.37-29.19,10.51ZM997.84,979.51l32.51-6.37-15.98,30.44-16.53-24.07ZM587.83,1192.48l33.63-30.46,23.63,50.69-57.27-20.22ZM564.47,1146.76l45.39,9.45-32.5,29.44-12.88-38.89ZM529.87,1151.41l30.1-5.5-2.28,57.55-27.82-52.05ZM527.33,1261.26l41.97-18.27,5.42,55.42-47.39-37.15ZM536.87,1230.08l40.92-37.07,24.42,57.88-65.34-20.81ZM602.27,1235.36l21.14-9.2,7.09,35.57-28.24-26.36ZM631.29,1227.08l39.56-15.36-2.75,41.24-36.81-25.87ZM679.56,1221.95l41.89-18.43-4.66,37.44-37.23-19.02ZM615.06,1265.63l38.59,36.04-43.6,12.39,5-48.42ZM638.02,1248.81l38.43,14.93-32.07,16.95-6.36-31.89ZM573.63,1280.24l15.7-21.63,18.8,25.22-34.49-3.6ZM732.72,1216.38l32.53,23.55-46.33,19.35,13.81-42.9ZM710.39,1270.39l48.84-21.58-.21,52.53-48.63-30.94ZM678.04,1273.94l40.69,8.31-30.23,30.76-10.47-39.07ZM653.7,1286.91l20.22-3.62.6,48.95-20.82-45.33ZM710.83,1245.2l-10.81,29.88-23.43-39.26,34.24,9.39ZM605.07,1320.56l-33.09-10.69,22-18.28,11.09,28.97ZM640.42,1185.93l41.97-18.27-3.09,40.51-38.88-22.24ZM546.51,1325.27l-7.02-32.38,30.75,15.37-23.74,17.01ZM708.72,1195.19l-7.02-32.38,30.75,15.37-23.74,17.01ZM814.66,181.42l-19.68,26.94-15.49-19.13,35.17-7.81ZM857.61,226.89l-30.72,16.18-4.17-31.1,34.9,14.92ZM870.63,326.47l-30.72,16.18-4.17-31.1,34.9,14.92ZM633.18,353.28l-30.72,16.18-4.17-31.1,34.9,14.92ZM755.22,382.82l-21.44,8.49-5.9-35.78,27.34,27.29ZM988.84,339.16l-21.44,8.49-5.9-35.78,27.34,27.29ZM637.26,627.16l-21.44,8.49-5.9-35.78,27.34,27.29ZM857.96,681.5l-31.72-24.62,46.95-17.79-15.23,42.41ZM730.04,575.03l-31.72-24.62,46.95-17.79-15.23,42.41ZM749.96,689.93l-31.72-24.62,46.95-17.79-15.23,42.41ZM628.34,508.76l-33.42-31.12,33.76-2.25-.33,33.36ZM631.26,583.63l-20.14-49.45,52.5,1.75-32.36,47.7ZM809.73,631.12l-20.14-49.45,52.5,1.75-32.36,47.7ZM697.13,629.59l-20.14-49.45,52.5,1.75-32.36,47.7ZM740.65,563.97l32.51-6.37-15.98,30.44-16.53-24.07ZM820.3,626.01l32.51-6.37-15.98,30.44-16.53-24.07ZM655.62,553.25l32.51-6.37-15.98,30.44-16.53-24.07ZM556.05,597.67l32.51-6.37-15.98,30.44-16.53-24.07ZM630.35,802.95l32.51-6.37-15.98,30.44-16.53-24.07ZM769.82,587.88l30.3,29.74-39.19,9.66,8.89-39.4ZM960.54,492.14l30.3,29.74-39.19,9.66,8.89-39.4ZM980.46,693.58l30.3,29.74-39.19,9.66,8.89-39.4ZM665.68,581.96l-15.7,38.12-16.31-32.4,32.01-5.72ZM754.53,602.64l-12.12,36.33-16.3-32.41,28.42-3.92ZM822.7,637.88l-15.7,38.12-16.31-32.4,32.01-5.72ZM618.96,774.22l-15.7,38.12-16.31-32.4,32.01-5.72ZM858.7,834.73l-15.7,38.12-16.31-32.4,32.01-5.72ZM779.05,791.83l-15.7,38.12-16.31-32.4,32.01-5.72ZM877.09,1035.41l-15.7,38.12-16.31-32.4,32.01-5.72ZM534.99,775.08l8.78,21.32-35.7,6.38,26.92-27.7ZM520.83,810.55l-15.7,38.12-16.31-32.4,32.01-5.72ZM509.85,734.82l21.31,16.13-25.6,18.29,4.29-34.41ZM544.83,916.82l-24.2,32.05-18.41-46.71,42.61,14.66ZM513.79,883.41l-29.66-11.41,39.73-22.64-10.07,34.05ZM545.43,955.27l36.24,41.65-58.36,23.26,22.12-64.91ZM545.67,1019.76l8.78,21.32-35.7,6.38,26.92-27.7ZM553.37,1048.93l14.57,39.86-41.17-3.58,26.61-36.28ZM557.54,1097.3l17.58,42.25-37.34-5.41,19.76-36.84ZM516.69,1024.28l-36.8,37.87-11.51-43.84,48.31,5.97ZM531.51,1055.23l-15.7,38.12-16.31-32.4,32.01-5.72ZM512.87,961.11l21.31,16.13-25.6,18.29,4.29-34.41ZM508.48,1127.14l20.6,49.26-52.51-1.26,31.91-48ZM533.66,1128.09l-29.66-11.41,39.73-22.64-10.07,34.05ZM686.65,115.59l8.78,21.32-35.7,6.38,26.92-27.7ZM1104.38,659.24l-24.2,32.05-18.41-46.71,42.61,14.66ZM1102.91,414.47l20.6,49.26-52.51-1.26,31.91-48ZM1103.58,541.8l-29.66-11.41,39.73-22.64-10.07,34.05ZM1104.94,565.16l17.42,42.33-55.52,4.31,38.09-46.63ZM874.06,442.87l8.78,21.32-35.7,6.38,26.92-27.7ZM867,487.65l-15.7,38.12-16.31-32.4,32.01-5.72ZM1083.51,688.43l21.31,16.13-25.6,18.29,4.29-34.41ZM983.28,830.9l-29.66-11.41,39.73-22.64-10.07,34.05ZM832.18,1038.57l8.78,21.32-35.7,6.38,26.92-27.7ZM516.65,1241.62l14.57,39.86-41.17-3.58,26.61-36.28ZM806.82,1279.07l16.1,30.16-29.73-5.72,13.63-24.44ZM945.94,1052.59l-15.7,38.12-16.31-32.4,32.01-5.72ZM970.19,1104.78l21.31,16.13-25.6,18.29,4.29-34.41ZM538.34,1202.3l-24.2,32.05-18.41-46.71,42.61,14.66ZM784.27,1175.06l20.6,49.26-52.51-1.26,31.91-48ZM755.07,1212.01l-29.66-11.41,39.73-22.64-10.07,34.05ZM1077.36,1200.91l17.42,42.33-55.52,4.31,38.09-46.63ZM1042.47,1255.49l36.24,41.65-58.36,23.26,22.12-64.91ZM1024.95,1250.96l8.78,21.32-35.7,6.38,26.92-27.7ZM932.52,1272.59l14.57,39.86-41.17-3.58,26.61-36.28ZM866.22,1302.57l17.58,42.25-37.34-5.41,19.76-36.84ZM1037.54,1220.36l-36.8,37.87-11.51-43.84,48.31,5.97ZM996.44,1287.31l-15.7,38.12-16.31-32.4,32.01-5.72ZM795.69,1088.84l21.31,16.13-25.6,18.29,4.29-34.41ZM801.02,1341.28l-24.2,32.05-18.41-46.71,42.61,14.66ZM1088.31,1287.23l20.6,49.26-52.51-1.26,31.91-48ZM1086.68,1281.28l-29.66-11.41,39.73-22.64-10.07,34.05ZM1020.35,1384.99l-34.63,29.33-21.93-51.45,56.56,22.12ZM1042.18,1431.47l-45.05-10.96,33.47-28.35,11.58,39.3ZM1076.91,1427.97l-30.27,4.49,4.2-57.44,26.07,52.95ZM1072.54,1349.11l-42.13,35.68-22.48-58.66,64.62,22.98ZM978.07,1348.96l-40.05,14.04,4.12-41.12,35.92,27.09ZM929.65,1352.48l-42.48,17.02,5.9-37.27,36.57,20.25ZM967.57,1389.79l-42.55,16.86,4.44-40.38,38.12,23.52ZM899.62,1378.26l5.94,32.59-30.23-16.38,24.29-16.21ZM917.72,1544.31l-34.63,29.33-21.93-51.45,56.56,22.12ZM939.54,1590.79l-45.05-10.96,33.47-28.35,11.58,39.3ZM974.27,1587.29l-30.27,4.49,4.2-57.44,26.07,52.95ZM980.47,1477.58l-42.55,16.86-3.57-55.57,46.12,38.71ZM969.9,1508.43l-42.13,35.68-22.48-58.66,64.62,22.98ZM904.7,1500.97l-21.44,8.49-5.9-35.78,27.34,27.29ZM875.43,1508.28l-40.05,14.04,4.12-41.12,35.92,27.09ZM827.01,1511.8l-42.48,17.02,5.9-37.27,36.57,20.25ZM892.93,1470.3l-37.37-37.3,43.99-10.93-6.61,48.23ZM869.43,1486.34l-37.91-16.21,32.62-15.88,5.29,32.08ZM934.83,1457.08l-16.41,21.09-17.95-25.84,34.35,4.74ZM815.79,1419.95l-42.55,16.86-3.57-55.57,46.12,38.71ZM766.02,1520.28l-34.09-21.22,44.87-22.53-10.78,43.76ZM783.27,1459.29l-49.53,19.94,1.96-52.49,47.57,32.55ZM830.27,1459.89l-40.39-9.66,31.23-29.74,9.16,39.4ZM855.02,1447.74l-20.33,2.94,1.03-48.94,19.3,46ZM796.54,1487.52l11.8-29.5,22.11,40.02-33.91-10.52ZM904.75,1415.73l32.72,11.79-22.6,17.54-10.12-29.33ZM864.93,1549.11l-42.55,16.86,4.44-40.38,38.12,23.52ZM963.44,1412.97l5.94,32.59-30.23-16.38,24.29-16.21ZM796.98,1537.58l5.94,32.59-30.23-16.38,24.29-16.21ZM676.35,1483.45l-34.63,29.33-21.93-51.45,56.56,22.12ZM698.17,1529.93l-45.05-10.96,33.47-28.35,11.58,39.3ZM738.26,1536.39l-30.27,4.49,4.2-57.44,26.07,52.95ZM739.1,1416.72l-42.55,16.86-3.57-55.57,46.12,38.71ZM728.53,1447.57l-42.13,35.68-22.48-58.66,64.62,22.98ZM663.33,1440.11l-21.44,8.49-5.9-35.78,27.34,27.29ZM634.06,1447.43l-40.05,14.04,4.12-41.12,35.92,27.09ZM585.64,1450.95l-42.48,17.02,5.9-37.27,36.57,20.25ZM651.56,1409.44l-37.37-37.3,43.99-10.93-6.61,48.23ZM628.06,1425.48l-37.91-16.21,32.62-15.88,5.29,32.08ZM693.46,1396.22l-16.41,21.09-17.95-25.84,34.35,4.74ZM574.42,1359.09l-42.55,16.86-3.57-55.57,46.12,38.71ZM532.33,1454.74l-31.72-24.62,46.95-17.79-15.23,42.41ZM556.45,1401.5l-49.53,19.94,1.96-52.49,47.57,32.55ZM588.9,1399.04l-40.39-9.66,31.23-29.74,9.16,39.4ZM613.65,1386.88l-20.33,2.94,1.03-48.94,19.3,46ZM555.17,1426.67l11.8-29.5,22.11,40.02-33.91-10.52ZM663.38,1354.87l32.72,11.79-22.6,17.54-10.12-29.33ZM623.56,1488.25l-42.55,16.86,4.44-40.38,38.12,23.52ZM722.07,1352.12l5.94,32.59-30.23-16.38,24.29-16.21ZM555.61,1476.72l5.94,32.59-30.23-16.38,24.29-16.21ZM765.23,1608.56l-42.55,16.86-3.57-55.57,46.12,38.71ZM677.7,1601.28l-37.37-37.3,43.99-10.93-6.61,48.23ZM654.19,1617.32l-37.91-16.21,32.62-15.88,5.29,32.08ZM719.59,1588.05l-16.41,21.09-17.95-25.84,34.35,4.74ZM600.55,1550.93l-42.55,16.86-3.57-55.57,46.12,38.71ZM582.59,1593.34l-49.53,19.94,1.96-52.49,47.57,32.55ZM615.03,1590.87l-40.39-9.66,31.23-29.74,9.16,39.4ZM639.79,1578.72l-20.33,2.94,1.03-48.94,19.3,46ZM581.31,1618.5l11.8-29.5,22.11,40.02-33.91-10.52ZM689.52,1546.71l32.72,11.79-22.6,17.54-10.12-29.33ZM748.2,1543.95l5.94,32.59-30.23-16.38,24.29-16.21ZM837.66,1610.91l-42.55,16.86-3.57-55.57,46.12,38.71ZM876.89,1638.7l-20.33,2.94,1.03-48.94,19.3,46ZM1053.92,1445.63l17.42,42.33-55.52,4.31,38.09-46.63ZM1084.9,1455.78l36.24,41.65-58.36,23.26,22.12-64.91ZM1078.31,1521.07l8.78,21.32-35.7,6.38,26.92-27.7ZM1086.01,1550.25l14.57,39.86-41.17-3.58,26.61-36.28ZM1047.8,1533.25l-36.8,37.87-11.51-43.84,48.31,5.97ZM1064.15,1556.54l-15.7,38.12-16.31-32.4,32.01-5.72ZM1034.02,1491.54l21.31,16.13-25.6,18.29,4.29-34.41ZM1025.75,1571.45l3.21,20.29-48.95-.38,45.74-19.91ZM993.08,1522.16l11.35-32.87,17.83,22.37-29.19,10.51ZM989.54,1463.51l32.51-6.37-15.98,30.44-16.53-24.07ZM639.65,1355.84l-21.44,8.49-5.9-35.78,27.34,27.29ZM860.34,1410.18l-31.72-24.62,46.95-17.79-15.23,42.41ZM752.34,1418.61l-31.72-24.62,46.95-17.79-15.23,42.41ZM812.11,1359.8l-20.14-49.45,52.5,1.75-32.36,47.7ZM822.69,1354.69l32.51-6.37-15.98,30.44-16.53-24.07ZM632.73,1531.63l32.51-6.37-15.98,30.44-16.53-24.07ZM982.84,1422.26l30.3,29.74-39.19,9.66,8.89-39.4ZM756.92,1331.32l-12.12,36.33-16.3-32.41,28.42-3.92ZM825.09,1366.56l-15.7,38.12-16.31-32.4,32.01-5.72ZM621.34,1502.9l-15.7,38.12-16.31-32.4,32.01-5.72ZM861.09,1563.41l-15.7,38.12-16.31-32.4,32.01-5.72ZM781.43,1520.52l-15.7,38.12-16.31-32.4,32.01-5.72ZM537.38,1503.76l8.78,21.32-35.7,6.38,26.92-27.7ZM523.21,1539.23l-15.7,38.12-16.31-32.4,32.01-5.72ZM512.23,1463.5l21.31,16.13-25.6,18.29,4.29-34.41ZM516.17,1612.1l-29.66-11.41,39.73-22.64-10.07,34.05ZM1106.77,1387.92l-24.2,32.05-18.41-46.71,42.61,14.66ZM1085.89,1417.11l21.31,16.13-25.6,18.29,4.29-34.41ZM985.66,1559.58l-29.66-11.41,39.73-22.64-10.07,34.05ZM1110.74,1670.69l-34.63,29.33-21.93-51.45,56.56,22.12ZM1068.45,1634.66l-40.05,14.04,4.12-41.12,35.92,27.09ZM1020.04,1638.19l-42.48,17.02,5.9-37.27,36.57,20.25ZM1057.95,1675.49l-42.55,16.86,4.44-40.38,38.12,23.52ZM990,1663.96l5.94,32.59-30.23-16.38,24.29-16.21ZM906.17,1705.65l-42.55,16.86-3.57-55.57,46.12,38.71ZM945.41,1733.44l-20.33,2.94,1.03-48.94,19.3,46ZM961.43,1694.54l32.72,11.79-22.6,17.54-10.12-29.33ZM1034.98,1691.46l5.94,32.59-30.23-16.38,24.29-16.21ZM778.6,1607.28l5.94,32.59-30.23-16.38,24.29-16.21ZM825.89,1663.77l16.53,42.68-55.59,3.14,39.06-45.82ZM608.27,1636.76l-42.13,35.68-22.48-58.66,64.62,22.98ZM750.65,1714.33l-21.44,8.49-5.9-35.78,27.34,27.29ZM549.64,1638.61l-42.48,17.02,5.9-37.27,36.57,20.25ZM741.95,1695.14l-37.37-37.3,43.99-10.93-6.61,48.23ZM718.44,1711.18l-37.91-16.21,32.62-15.88,5.29,32.08ZM783.84,1681.92l-16.41,21.09-17.95-25.84,34.35,4.74ZM664.8,1644.79l-42.55,16.86-3.57-55.57,46.12,38.71ZM646.83,1687.2l-49.53,19.94,1.96-52.49,47.57,32.55ZM679.28,1684.74l-40.39-9.66,31.23-29.74,9.16,39.4ZM704.04,1672.59l-20.33,2.94,1.03-48.94,19.3,46ZM645.55,1712.37l11.8-29.5,22.11,40.02-33.91-10.52ZM753.76,1640.57l32.72,11.79-22.6,17.54-10.12-29.33ZM812.45,1637.82l5.94,32.59-30.23-16.38,24.29-16.21ZM518.85,1660.55l5.94,32.59-30.23-16.38,24.29-16.21ZM949.42,1628.63l11.35-32.87,17.83,22.37-29.19,10.51ZM730.03,1641.54l-21.44,8.49-5.9-35.78,27.34,27.29ZM950.73,1695.89l-31.72-24.62,46.95-17.79-15.23,42.41ZM842.73,1704.31l-31.72-24.62,46.95-17.79-15.23,42.41ZM902.5,1645.5l-20.14-49.45,52.5,1.75-32.36,47.7ZM913.07,1640.39l32.51-6.37-15.98,30.44-16.53-24.07ZM654.81,1611.44l32.51-6.37-15.98,30.44-16.53-24.07ZM847.3,1617.03l-12.12,36.33-16.3-32.41,28.42-3.92ZM915.47,1652.26l-15.7,38.12-16.31-32.4,32.01-5.72ZM581.46,1673l8.78,21.32-35.7,6.38,26.92-27.7ZM535.21,1651.93l21.31,16.13-25.6,18.29,4.29-34.41ZM1100.64,1609.28l-24.2,32.05-18.41-46.71,42.61,14.66ZM767.25,1564.18l21.31,16.13-25.6,18.29,4.29-34.41ZM1018.34,1627.54l-29.4-11.96,35.19-12.84-5.79,24.8ZM703.06,1302.61l18.46,41.89-40.52-2.91,22.06-38.98ZM758.07,1302.4l32.35-7.16-15.23,30.82-17.12-23.66ZM655.69,1310.67l9.3,21.1-35.53,7.25,26.24-28.35ZM994.99,1327.39l18.62,41.8-37.47-4.49,18.85-37.31ZM596.45,1319.67l-14.76,38.5-17.1-31.99,31.86-6.5ZM512.64,1285.06l21.7,15.6-25.14,18.91,3.44-34.51ZM1054,1194.59l3.71,20.21-48.94.82,45.24-21.02ZM984.9,1285.23l-29.93-10.68,39.16-23.61-9.23,34.28ZM768.13,1259.47l10.54-33.14,18.38,21.92-28.92,11.22ZM712.6,1306.63l32.35-7.16-15.23,30.82-17.12-23.66ZM864.47,857.45l20.98-9.58,7.72,35.44-28.7-25.86ZM756.02,838.54l20.16-3.98,1.47,48.93-21.62-44.95ZM985.98,1208.97l-7.59-32.25,31.02,14.82-23.43,17.43Z"/>
</svg>