<?xml version="1.0" encoding="UTF-8"?>
<svg id="Lag_6" data-name="Lag 6" xmlns="http://www.w3.org/2000/svg" viewBox="0 0 59.64 55.11">
  <defs>
    <style>
      .cls-1 {
        fill: #231f20;
      }

      .cls-2 {
        fill: none;
        stroke: #231f20;
        stroke-miterlimit: 10;
        stroke-width: 4px;
      }
    </style>
  </defs>
  <path class="cls-1" d="M2.64,4.63c.46-.11.91-.21,1.37-.29.23-.04.46-.08.69-.11.1-.01.2-.03.3-.04-.17.02-.14.02.1,0,.9-.1,1.8-.18,2.7-.23s1.81-.1,2.71-.15c.33-.02.66-.05.99-.05.15,0,.3,0,.46,0,.22.02.19.01-.08-.02.2.06.17.03-.1-.07.89.4,2.06.29,2.57-.67.43-.81.29-2.14-.67-2.57C12.76.02,11.87-.04,10.9.02s-1.93.11-2.9.16c-2.13.13-4.27.33-6.36.83C.69,1.24.03,2.38.33,3.32c.32.99,1.28,1.55,2.31,1.31h0Z"/>
  <path class="cls-1" d="M10.91,2.54c.33,2.19,1.12,4.28,1.64,6.43s.85,4.22,1.21,6.35c.38,2.26.76,4.53,1.14,6.79.19,1.13.38,2.26.57,3.39s.29,1.55.28,2.19c-.02,2.41,3.73,2.42,3.75,0,.01-1.87-.52-3.77-.82-5.61-.41-2.42-.82-4.85-1.23-7.27-.39-2.28-.75-4.58-1.29-6.83s-1.31-4.23-1.64-6.43c-.15-1-1.41-1.56-2.31-1.31-1.07.3-1.46,1.3-1.31,2.31h0Z"/>
  <path class="cls-1" d="M15.23,10.93c7.13.13,14.26.25,21.38.38s14.18.39,21.23-.28c2.38-.23,2.41-3.98,0-3.75-7.06.67-14.16.41-21.23.28s-14.26-.25-21.38-.38c-2.41-.04-2.41,3.71,0,3.75h0Z"/>
  <path class="cls-1" d="M55.85,8.82c-.86,3.76-1.51,7.55-2.05,11.37-.26,1.86-.5,3.73-.73,5.59-.21,1.72-.2,3.7-1.12,5.22-1.27,2.06,1.98,3.95,3.24,1.89,1.01-1.65,1.2-3.5,1.43-5.39s.48-3.94.75-5.9c.55-3.96,1.22-7.89,2.11-11.79.54-2.35-3.08-3.35-3.62-1h0Z"/>
  <path class="cls-1" d="M53.03,30.22c-3.32,1.03-6.84,1.08-10.28,1.24s-6.95.25-10.43.25-7.29-.08-10.93-.25c-2.73-.13-6.14-.61-7.91,2.02-1.46,2.16-1.38,6.27.01,8.45,1.75,2.74,5.38,2.55,8.2,2.61,3.73.09,7.45.47,11.18.57,7.61.21,15.21-.1,22.8-.53,2.4-.14,2.42-3.89,0-3.75-9.88.56-19.74.84-29.62.16-2.19-.15-4.38-.15-6.57-.21-.93-.03-2.43-.12-2.94-1.06-.45-.84-.43-2.75-.16-3.64.33-1.06,1.34-1.02,2.3-1,1.57.03,3.13.16,4.7.21,3.14.12,6.29.17,9.44.16,3.64-.01,7.29-.11,10.93-.3,3.44-.18,6.97-.3,10.28-1.33,2.3-.71,1.32-4.33-1-3.62h0Z"/>
  <path class="cls-1" d="M.05,2.87c-.02.49-.11.94.01,1.43.24.97,1.12,1.6,2.1,1.64.6.02,1.25-.21,1.83-.32.54-.11,1.09-.2,1.64-.28.13-.02.26-.04.39-.06-.21.03-.01,0,.08,0,.26-.03.52-.06.78-.09.55-.06,1.1-.1,1.66-.13,1.14-.07,2.28-.08,3.42-.04.98.03,1.92-.88,1.88-1.88-.05-1.04-.82-1.84-1.88-1.88-1.66-.05-3.33,0-4.99.16-.91.09-1.82.21-2.73.36-.39.06-.77.13-1.16.2-.19.04-.38.08-.58.12-.13.03-.26.05-.38.08-.5.09-.25.14.74.16l.67.67c.36.71.16.78.21.29.01-.15.03-.29.04-.43.04-.98-.89-1.92-1.88-1.88C.87,1.04.09,1.82.05,2.87H.05Z"/>
  <circle class="cls-2" cx="22.37" cy="49" r="4.11"/>
  <circle class="cls-2" cx="48.5" cy="48.5" r="4.11"/>
</svg>